<svg width="20" height="20" viewBox="0 0 20 20" fill="none" xmlns="http://www.w3.org/2000/svg">
<path d="M8.55664 17.5C8.70293 17.7533 8.91332 17.9637 9.16668 18.11C9.42003 18.2563 9.70743 18.3333 9.99997 18.3333C10.2925 18.3333 10.5799 18.2563 10.8333 18.11C11.0866 17.9637 11.297 17.7533 11.4433 17.5" stroke="white" stroke-width="1.66667" stroke-linecap="round" stroke-linejoin="round"/>
<path d="M2.7187 12.7715C2.60984 12.8908 2.538 13.0392 2.51191 13.1986C2.48583 13.358 2.50663 13.5215 2.57179 13.6693C2.63695 13.8171 2.74365 13.9428 2.87891 14.0311C3.01418 14.1193 3.17218 14.1664 3.3337 14.1665H16.667C16.8285 14.1666 16.9866 14.1197 17.1219 14.0316C17.2573 13.9435 17.3641 13.818 17.4294 13.6703C17.4948 13.5226 17.5158 13.3591 17.4899 13.1997C17.464 13.0402 17.3924 12.8918 17.2837 12.7723C16.1754 11.6298 15.0004 10.4157 15.0004 6.6665C15.0004 5.34042 14.4736 4.06865 13.5359 3.13097C12.5982 2.19329 11.3265 1.6665 10.0004 1.6665C8.67429 1.6665 7.40252 2.19329 6.46483 3.13097C5.52715 4.06865 5.00037 5.34042 5.00037 6.6665C5.00037 10.4157 3.82453 11.6298 2.7187 12.7715Z" stroke="white" stroke-width="1.66667" stroke-linecap="round" stroke-linejoin="round"/>
</svg>
