<svg width="15" height="14" viewBox="0 0 15 14" fill="none" xmlns="http://www.w3.org/2000/svg">
<path fill-rule="evenodd" clip-rule="evenodd" d="M8.55 9.59267H7.2C6.82875 9.59267 6.525 9.30101 6.525 8.94453H1.80675V11.5371C1.80675 12.2501 2.41425 12.8334 3.15675 12.8334H12.6C13.3425 12.8334 13.95 12.2501 13.95 11.5371V8.94453H9.225C9.225 9.30101 8.92125 9.59267 8.55 9.59267ZM13.275 3.75934H10.575C10.575 2.32693 9.36675 1.16675 7.875 1.16675C6.38325 1.16675 5.175 2.32693 5.175 3.75934H2.475C1.7325 3.75934 1.125 4.34267 1.125 5.05564V7.00008C1.125 7.71953 1.72575 8.29638 2.475 8.29638H6.525V7.64823C6.525 7.29175 6.82875 7.00008 7.2 7.00008H8.55C8.92125 7.00008 9.225 7.29175 9.225 7.64823V8.29638H13.275C14.0175 8.29638 14.625 7.71304 14.625 7.00008V5.05564C14.625 4.34267 14.0175 3.75934 13.275 3.75934ZM6.525 3.75934C6.525 3.04638 7.1325 2.46304 7.875 2.46304C8.6175 2.46304 9.225 3.04638 9.225 3.75934H6.51825H6.525Z" fill="#FFE24D"/>
</svg>
