<svg width="10" height="12" viewBox="0 0 10 12" fill="none" xmlns="http://www.w3.org/2000/svg">
<path d="M7.2007 1.35009C7.2007 2.09414 6.59466 2.70018 5.85061 2.70018H3.75048C3.37845 2.70018 3.04243 2.55017 2.79642 2.30415C2.5504 2.05813 2.40039 1.72211 2.40039 1.35009C2.40039 0.606039 3.00643 0 3.75048 0H5.85061C6.22264 0 6.55866 0.15001 6.80468 0.396026C7.05069 0.642042 7.2007 0.978064 7.2007 1.35009Z" fill="#FFE24D"/>
<path d="M8.89858 1.81731C8.76057 1.70331 8.60456 1.6133 8.43655 1.5473C8.26254 1.48129 8.08852 1.6193 8.05252 1.79931C7.84851 2.82538 6.94245 3.59943 5.85038 3.59943H3.75024C3.1502 3.59943 2.58617 3.36541 2.16014 2.93939C1.84812 2.62737 1.63211 2.23134 1.5481 1.80531C1.5121 1.6253 1.33209 1.48129 1.15808 1.5533C0.46203 1.83531 0 2.47136 0 3.74944V9.59979C0 11.3999 1.07407 11.9999 2.40016 11.9999H7.20047C8.52655 11.9999 9.60062 11.3999 9.60062 9.59979V3.74944C9.60062 2.77137 9.33061 2.17134 8.89858 1.81731ZM2.40016 6.14957H4.80031C5.04633 6.14957 5.25034 6.35358 5.25034 6.5996C5.25034 6.84561 5.04633 7.04963 4.80031 7.04963H2.40016C2.15414 7.04963 1.95013 6.84561 1.95013 6.5996C1.95013 6.35358 2.15414 6.14957 2.40016 6.14957ZM7.20047 9.44978H2.40016C2.15414 9.44978 1.95013 9.24577 1.95013 8.99975C1.95013 8.75374 2.15414 8.54973 2.40016 8.54973H7.20047C7.44648 8.54973 7.6505 8.75374 7.6505 8.99975C7.6505 9.24577 7.44648 9.44978 7.20047 9.44978Z" fill="#FFE24D"/>
</svg>
