<svg width="11" height="12" viewBox="0 0 11 12" fill="none" xmlns="http://www.w3.org/2000/svg">
<path d="M5.5 5.387C3.77555 5.387 3.42611 2.83096 3.42611 2.83096C3.22099 1.50093 3.84392 0 5.47721 0C7.11809 0 7.74102 1.50093 7.53591 2.83096C7.53591 2.83096 7.22445 5.387 5.5 5.387ZM5.5 7.29659L7.5663 5.94427C9.38191 5.94427 11 7.67554 11 9.31022V11.1604C11 11.1604 8.22721 12 5.5 12C2.72721 12 0 11.1604 0 11.1604V9.31022C0 7.63839 1.47376 5.98142 3.39572 5.98142L5.5 7.29659Z" fill="#FFE24D"/>
</svg>
