<svg width="12" height="11" viewBox="0 0 12 11" fill="none" xmlns="http://www.w3.org/2000/svg">
<path fill-rule="evenodd" clip-rule="evenodd" d="M8.61401 6.28571C9.51671 6.32955 10.3693 6.72522 10.9983 7.39225C11.6273 8.05928 11.9855 8.94756 12 9.87643V10.3714C12 10.5381 11.9356 10.698 11.8209 10.8159C11.7062 10.9338 11.5507 11 11.3885 11H10.3261C10.4155 10.8167 10.4651 10.6156 10.4713 10.4107V9.86857C10.4484 8.37571 9.71465 7.07929 8.61401 6.28571ZM6.15287 6.28571C8.09427 6.28571 9.66879 7.88857 9.70701 9.87643V10.3714C9.70701 10.5381 9.64258 10.698 9.52791 10.8159C9.41324 10.9338 9.25771 11 9.09554 11H0.611465C0.449294 11 0.293766 10.9338 0.179094 10.8159C0.064422 10.698 0 10.5381 0 10.3714V9.93929C0 8.9703 0.374453 8.041 1.04098 7.35582C1.70751 6.67064 2.61152 6.28571 3.55414 6.28571H6.15287ZM7.16178 0C7.87128 0.0177127 8.54487 0.324431 9.03438 0.852681C9.52388 1.38093 9.78921 2.08744 9.77197 2.81679C9.75474 3.54613 9.45637 4.23857 8.9425 4.74177C8.42863 5.24497 7.74134 5.51771 7.03185 5.5C7.43081 5.16857 7.75261 4.74959 7.97368 4.27377C8.19475 3.79794 8.30948 3.27731 8.30948 2.75C8.30948 2.22269 8.19475 1.70206 7.97368 1.22623C7.75261 0.750406 7.43081 0.331434 7.03185 0L7.16178 0ZM4.86879 0C5.57829 0 6.25872 0.289731 6.76041 0.805456C7.2621 1.32118 7.54395 2.02065 7.54395 2.75C7.54395 3.47935 7.2621 4.17882 6.76041 4.69454C6.25872 5.21027 5.57829 5.5 4.86879 5.5C4.15929 5.5 3.47886 5.21027 2.97717 4.69454C2.47548 4.17882 2.19363 3.47935 2.19363 2.75C2.19363 2.02065 2.47548 1.32118 2.97717 0.805456C3.47886 0.289731 4.15929 0 4.86879 0Z" fill="#FFE24D"/>
</svg>
