<svg width="15" height="18" viewBox="0 0 15 18" fill="none" xmlns="http://www.w3.org/2000/svg">
<path d="M3.73145 1.49609C5.69364 -0.280766 8.60671 -0.295781 10.585 1.43652C12.4002 3.02703 12.9772 6.40199 10.3604 8.58594L10.1846 8.7334L10.3887 8.83496C11.3345 9.30805 12.1592 9.97761 12.8027 10.7939L12.8037 10.7949C13.6333 11.8388 14.1178 13.095 14.2002 14.4014L14.2119 14.6631C14.2202 14.9739 14.2149 15.2855 14.2119 15.6016C14.2089 15.9164 14.2082 16.2358 14.2256 16.5547C14.2399 16.8202 14.1979 17.0325 14.1006 17.2021C14.0073 17.3649 13.8546 17.501 13.6201 17.6084H0.795898C0.545912 17.5154 0.38378 17.3852 0.285156 17.2256C0.182985 17.0602 0.138284 16.8478 0.152344 16.583C0.179519 16.072 0.175829 15.5497 0.1875 15.0459C0.199282 14.5376 0.226826 14.039 0.316406 13.5537C0.693781 11.5191 1.89964 9.99751 3.77344 8.9541C3.84608 8.91353 3.92311 8.86531 3.99219 8.8252L4.17773 8.71777L4.01367 8.58105C1.48439 6.46797 1.90956 3.14706 3.73145 1.49609ZM9.81836 10.3223C7.98226 9.28804 5.62731 9.45817 3.90527 10.7393C2.13455 12.0572 1.63339 13.865 1.81641 15.9062L1.82812 16.043H12.543L12.5557 15.9062C12.6639 14.7226 12.5374 13.6388 12.1016 12.6924C11.6647 11.744 10.9219 10.9438 9.81836 10.3223ZM10.5127 4.89258C10.51 3.14185 8.98438 1.69892 7.17383 1.7041C5.38039 1.70814 3.87357 3.14874 3.86719 4.8916C3.86108 6.63539 5.37607 8.0904 7.18652 8.0918V8.09277H7.1875V8.0918C8.99599 8.09136 10.5153 6.64269 10.5127 4.89258Z" fill="white" stroke="white" stroke-width="0.3"/>
</svg>
