<svg width="37" height="37" viewBox="0 0 37 37" fill="none" xmlns="http://www.w3.org/2000/svg">
<path d="M22.8198 24.9772C22.4291 26.6227 21.0581 27.3563 19.9288 27.3617C18.7808 27.3677 17.3999 26.6316 17.0013 24.9772C16.9411 24.9772 16.875 24.9772 16.8089 24.9772C15.7625 24.9772 14.7161 24.9782 13.6697 24.9767C13.1729 24.9762 12.8049 24.748 12.5903 24.303C12.3786 23.8644 12.4423 23.4437 12.725 23.0472C13.09 22.5348 13.4477 22.0171 13.8034 21.4978C13.9544 21.277 14.0022 21.0241 14.0017 20.7582C14.0003 19.3539 13.9973 17.9495 14.0022 16.5452C14.0106 14.2384 15.5025 12.0346 17.6328 11.1713C19.9623 10.2268 22.5115 10.7674 24.2194 12.5915C25.2648 13.7083 25.8055 15.0473 25.8193 16.5848C25.8317 17.9644 25.8248 19.344 25.8203 20.7236C25.8193 21.0577 25.9072 21.3522 26.1025 21.624C26.4518 22.1101 26.7922 22.6021 27.1311 23.0957C27.398 23.4843 27.4351 23.903 27.2239 24.3233C27.0093 24.75 26.6506 24.9752 26.1691 24.9767C25.1227 24.9802 24.0764 24.9777 23.03 24.9777C22.9629 24.9772 22.8958 24.9772 22.8198 24.9772ZM26.1459 23.7803C25.7858 23.2581 25.4444 22.7596 25.0986 22.2641C24.7892 21.8205 24.6348 21.3344 24.6378 20.7889C24.6452 19.4588 24.6442 18.1287 24.6373 16.7986C24.6358 16.5031 24.6136 16.2051 24.5702 15.9126C24.103 12.7707 20.6422 10.961 17.8197 12.4094C16.096 13.294 15.2243 14.7587 15.1877 16.7006C15.1621 18.0733 15.1833 19.4475 15.1818 20.8206C15.1818 20.9439 15.1764 21.0681 15.1601 21.1899C15.1063 21.5899 14.947 21.9463 14.7171 22.2755C14.3722 22.769 14.0323 23.266 13.6781 23.7798C17.8419 23.7803 21.9796 23.7803 26.1459 23.7803ZM21.549 24.9871C20.4567 24.9871 19.3659 24.9871 18.2722 24.9871C18.4468 25.6445 19.1913 26.1722 19.9234 26.1648C20.657 26.1578 21.3995 25.6217 21.549 24.9871Z" fill="white"/>
<circle cx="25.6952" cy="12.695" r="5.69524" fill="#404145"/>
<path d="M27.5269 13.9322C27.5269 14.2416 27.4768 14.5259 27.3766 14.7851C27.2765 15.0444 27.138 15.2683 26.9612 15.4569C26.7845 15.6454 26.5738 15.792 26.3293 15.8966C26.0848 16.0012 25.8196 16.0535 25.5338 16.0535C25.2156 16.0535 24.9306 15.9872 24.6787 15.8546C24.4268 15.722 24.2132 15.5313 24.0379 15.2823C23.8626 15.0334 23.7293 14.7292 23.638 14.3697C23.5466 14.0103 23.501 13.6052 23.501 13.1545C23.501 12.6035 23.5621 12.1034 23.6844 11.6541C23.8066 11.2048 23.9805 10.8204 24.2058 10.5007C24.4312 10.1811 24.703 9.93431 25.0212 9.76049C25.3394 9.58667 25.6944 9.49976 26.0862 9.49976C26.5223 9.49976 26.8728 9.56015 27.138 9.68094V10.3659C26.811 10.198 26.4663 10.114 26.1039 10.114C25.8211 10.114 25.5662 10.1774 25.3394 10.3041C25.1125 10.4307 24.9181 10.6097 24.756 10.841C24.594 11.0723 24.4695 11.3514 24.3826 11.6784C24.2957 12.0055 24.2522 12.3693 24.2522 12.77H24.2699C24.5616 12.2426 25.0433 11.9789 25.715 11.9789C25.9919 11.9789 26.2416 12.0261 26.4641 12.1204C26.6865 12.2146 26.8765 12.3479 27.0341 12.5203C27.1918 12.6926 27.3133 12.8981 27.3987 13.1368C27.4842 13.3754 27.5269 13.6406 27.5269 13.9322ZM26.7845 14.025C26.7845 13.8041 26.7565 13.6052 26.7005 13.4284C26.6445 13.2517 26.5642 13.1014 26.4596 12.9777C26.3551 12.8539 26.2262 12.7589 26.073 12.6926C25.9198 12.6264 25.7459 12.5932 25.5515 12.5932C25.3718 12.5932 25.2053 12.6271 25.0521 12.6949C24.8989 12.7626 24.7663 12.8547 24.6544 12.9711C24.5424 13.0874 24.4548 13.223 24.3915 13.3776C24.3281 13.5323 24.2964 13.6965 24.2964 13.8704C24.2964 14.0884 24.3274 14.2924 24.3892 14.4824C24.4511 14.6725 24.538 14.8382 24.65 14.9796C24.7619 15.121 24.8952 15.2322 25.0499 15.3132C25.2046 15.3943 25.3762 15.4348 25.5648 15.4348C25.7474 15.4348 25.9139 15.4002 26.0641 15.3309C26.2144 15.2617 26.3425 15.1652 26.4486 15.0415C26.5547 14.9177 26.6372 14.7697 26.6961 14.5973C26.755 14.425 26.7845 14.2342 26.7845 14.025Z" fill="white"/>
</svg>
