<svg width="15" height="16" viewBox="0 0 15 16" fill="none" xmlns="http://www.w3.org/2000/svg">
<path fill-rule="evenodd" clip-rule="evenodd" d="M8.8 10.9629H7.2C6.76 10.9629 6.4 10.6295 6.4 10.2221H0.808V13.1851C0.808 13.9999 1.528 14.6666 2.408 14.6666H13.6C14.48 14.6666 15.2 13.9999 15.2 13.1851V10.2221H9.6C9.6 10.6295 9.24 10.9629 8.8 10.9629ZM14.4 4.29622H11.2C11.2 2.65918 9.768 1.33325 8 1.33325C6.232 1.33325 4.8 2.65918 4.8 4.29622H1.6C0.72 4.29622 0 4.96288 0 5.7777V7.99992C0 8.82214 0.712 9.4814 1.6 9.4814H6.4V8.74066C6.4 8.33325 6.76 7.99992 7.2 7.99992H8.8C9.24 7.99992 9.6 8.33325 9.6 8.74066V9.4814H14.4C15.28 9.4814 16 8.81473 16 7.99992V5.7777C16 4.96288 15.28 4.29622 14.4 4.29622ZM6.4 4.29622C6.4 3.4814 7.12 2.81473 8 2.81473C8.88 2.81473 9.6 3.4814 9.6 4.29622H6.392H6.4Z" fill="#FFD705"/>
</svg>
