<svg width="16" height="16" viewBox="0 0 16 16" fill="none" xmlns="http://www.w3.org/2000/svg">
<g clip-path="url(#clip0_2_1371)">
<path fill-rule="evenodd" clip-rule="evenodd" d="M10.0002 10.9629H8.4002C7.9602 10.9629 7.6002 10.6295 7.6002 10.2221H2.0082V13.1851C2.0082 13.9999 2.7282 14.6666 3.6082 14.6666H14.8002C15.6802 14.6666 16.4002 13.9999 16.4002 13.1851V10.2221H10.8002C10.8002 10.6295 10.4402 10.9629 10.0002 10.9629ZM15.6002 4.29622H12.4002C12.4002 2.65918 10.9682 1.33325 9.2002 1.33325C7.4322 1.33325 6.0002 2.65918 6.0002 4.29622H2.8002C1.9202 4.29622 1.2002 4.96288 1.2002 5.7777V7.99992C1.2002 8.82214 1.9122 9.4814 2.8002 9.4814H7.6002V8.74066C7.6002 8.33325 7.9602 7.99992 8.4002 7.99992H10.0002C10.4402 7.99992 10.8002 8.33325 10.8002 8.74066V9.4814H15.6002C16.4802 9.4814 17.2002 8.81473 17.2002 7.99992V5.7777C17.2002 4.96288 16.4802 4.29622 15.6002 4.29622ZM7.6002 4.29622C7.6002 3.4814 8.3202 2.81473 9.2002 2.81473C10.0802 2.81473 10.8002 3.4814 10.8002 4.29622H7.5922H7.6002Z" fill="white"/>
</g>
<defs>
<clipPath id="clip0_2_1371">
<rect width="16" height="16" fill="white"/>
</clipPath>
</defs>
</svg>
