<svg width="22" height="15" viewBox="0 0 22 15" fill="none" xmlns="http://www.w3.org/2000/svg">
<path d="M17.9178 0.00710162C18.3661 -0.0220775 18.8157 0.0388478 19.2412 0.186439C19.7642 0.388359 20.2133 0.750814 20.5269 1.2241C20.8406 1.69739 21.0035 2.25834 20.9932 2.83003C20.9932 5.47894 20.9932 8.12784 20.9932 10.7767C20.9932 11.344 21.0191 11.9152 20.9698 12.4785C20.9171 13.1605 20.6163 13.7975 20.1267 14.2636C19.6371 14.7297 18.9944 14.991 18.3256 14.9959C17.9775 15.0052 17.6308 14.9959 17.2866 14.9959H7.78512C6.51237 14.9959 5.4604 14.2187 5.12143 13.0138C5.04545 12.7439 5.00655 12.4645 5.00584 12.1836C4.99805 9.05908 4.99805 5.93459 5.00584 2.8101C5.00036 2.43905 5.06801 2.07067 5.20475 1.72693C5.34149 1.3832 5.54452 1.07116 5.80172 0.809441C6.05892 0.547717 6.36502 0.34167 6.70177 0.203592C7.03852 0.065515 7.39902 -0.00176379 7.76175 0.00577191C11.806 0.0100145 15.0599 0.00710162 17.9178 0.00710162ZM6.26561 4.11596H19.762C19.762 3.65233 19.762 3.19934 19.762 2.74767C19.7652 2.39341 19.6414 2.05021 19.4141 1.78293C19.1868 1.51564 18.8716 1.34278 18.5282 1.29701C18.0217 1.23989 17.5022 1.28639 16.9697 1.28639C16.9697 1.53082 16.9697 1.77658 16.9697 2.02101C16.9697 2.10524 16.9531 2.18859 16.9209 2.26612C16.8887 2.34365 16.8417 2.41377 16.7825 2.47232C16.7233 2.53088 16.6532 2.57666 16.5764 2.60696C16.4996 2.63725 16.4176 2.65144 16.3353 2.64868C16.253 2.64592 16.1721 2.62626 16.0974 2.59088C16.0226 2.5555 15.9556 2.50512 15.9003 2.44272C15.845 2.38033 15.8025 2.3072 15.7754 2.22768C15.7483 2.14816 15.7371 2.06387 15.7424 1.97983C15.7424 1.74735 15.7424 1.51488 15.7424 1.2824H10.2592C10.2592 1.52285 10.2592 1.75134 10.2592 1.97983C10.2488 2.37836 9.97997 2.65202 9.63061 2.64405C9.54765 2.64135 9.46604 2.6217 9.39061 2.58624C9.31519 2.55079 9.24747 2.50025 9.19143 2.43761C9.13539 2.37497 9.09218 2.30149 9.06434 2.2215C9.0365 2.14151 9.02458 2.05663 9.0293 1.97186C9.0293 1.7447 9.0293 1.51753 9.0293 1.27443C8.55917 1.27443 8.10591 1.26646 7.65395 1.27443C6.96952 1.29037 6.36172 1.78189 6.2773 2.47002C6.21366 3.0107 6.26561 3.56067 6.26561 4.11596Z" fill="white"/>
</svg>
