<svg width="20" height="20" viewBox="0 0 20 20" fill="none" xmlns="http://www.w3.org/2000/svg">
<path d="M6.66927 18.3327C7.12951 18.3327 7.5026 17.9596 7.5026 17.4993C7.5026 17.0391 7.12951 16.666 6.66927 16.666C6.20903 16.666 5.83594 17.0391 5.83594 17.4993C5.83594 17.9596 6.20903 18.3327 6.66927 18.3327Z" stroke="white" stroke-width="1.33333" stroke-linecap="round" stroke-linejoin="round"/>
<path d="M15.8333 18.3327C16.2936 18.3327 16.6667 17.9596 16.6667 17.4993C16.6667 17.0391 16.2936 16.666 15.8333 16.666C15.3731 16.666 15 17.0391 15 17.4993C15 17.9596 15.3731 18.3327 15.8333 18.3327Z" stroke="white" stroke-width="1.33333" stroke-linecap="round" stroke-linejoin="round"/>
<path d="M1.71094 1.70898H3.3776L5.59427 12.059C5.67559 12.438 5.8865 12.7769 6.1907 13.0172C6.4949 13.2575 6.87336 13.3843 7.26094 13.3756H15.4109C15.7902 13.375 16.158 13.2451 16.4535 13.0072C16.7489 12.7693 16.9544 12.4378 17.0359 12.0673L18.4109 5.87565H4.26927" stroke="white" stroke-width="1.33333" stroke-linecap="round" stroke-linejoin="round"/>
</svg>
