<svg width="20" height="20" viewBox="0 0 20 20" fill="none" xmlns="http://www.w3.org/2000/svg">
<path d="M10.4883 10.4883L15.8333 15.8333" stroke="#F54900" stroke-width="1.66667" stroke-linecap="round" stroke-linejoin="round"/>
<path d="M3.07305 2.5308C2.99717 2.49882 2.91347 2.49019 2.83266 2.506C2.75185 2.52182 2.67758 2.56137 2.61935 2.6196C2.56113 2.67783 2.52158 2.75209 2.50576 2.8329C2.48994 2.91372 2.49857 2.99741 2.53055 3.0733L7.94722 16.4058C7.98056 16.4865 8.03835 16.5546 8.11245 16.6008C8.18655 16.6469 8.27324 16.6686 8.36033 16.6629C8.44742 16.6572 8.53054 16.6244 8.59799 16.569C8.66544 16.5136 8.71384 16.4384 8.73639 16.3541L10.0439 11.285C10.1135 10.989 10.2627 10.7177 10.4754 10.5005C10.6881 10.2832 10.9561 10.1283 11.2506 10.0525L16.3539 8.73663C16.4386 8.71463 16.5143 8.6665 16.5701 8.59907C16.6259 8.53165 16.6591 8.44834 16.6649 8.36099C16.6707 8.27364 16.6489 8.18668 16.6025 8.11245C16.5561 8.03822 16.4875 7.98049 16.4064 7.94746L3.07305 2.5308Z" stroke="#F54900" stroke-width="1.66667" stroke-linecap="round" stroke-linejoin="round"/>
</svg>
