<svg width="16" height="16" viewBox="0 0 16 16" fill="none" xmlns="http://www.w3.org/2000/svg">
<path d="M12 1.80012C12 2.79218 10.99 3.60023 9.75 3.60023H6.25C5.63 3.60023 5.07 3.40022 4.66 3.0722C4.25 2.74418 4 2.29615 4 1.80012C4 0.808052 5.01 0 6.25 0H9.75C10.37 0 10.93 0.200013 11.34 0.528034C11.75 0.856056 12 1.30408 12 1.80012Z" fill="white"/>
<path d="M14.83 2.42316C14.6 2.27116 14.34 2.15115 14.06 2.06314C13.77 1.97514 13.48 2.15915 13.42 2.39916C13.08 3.76725 11.57 4.79932 9.75 4.79932H6.25C5.25 4.79932 4.31 4.4873 3.6 3.91926C3.08 3.50323 2.72 2.9752 2.58 2.40716C2.52 2.16715 2.22 1.97514 1.93 2.07114C0.77 2.44717 0 3.29522 0 4.99933V12.7998C0 15.2 1.79 16 4 16H12C14.21 16 16 15.2 16 12.7998V4.99933C16 3.69525 15.55 2.8952 14.83 2.42316ZM4 8.19951H8C8.41 8.19951 8.75 8.47153 8.75 8.79955C8.75 9.12757 8.41 9.39959 8 9.39959H4C3.59 9.39959 3.25 9.12757 3.25 8.79955C3.25 8.47153 3.59 8.19951 4 8.19951ZM12 12.5998H4C3.59 12.5998 3.25 12.3278 3.25 11.9998C3.25 11.6717 3.59 11.3997 4 11.3997H12C12.41 11.3997 12.75 11.6717 12.75 11.9998C12.75 12.3278 12.41 12.5998 12 12.5998Z" fill="white"/>
</svg>
