<svg width="17" height="17" viewBox="0 0 17 17" fill="none" xmlns="http://www.w3.org/2000/svg">
<path d="M9.03194 17.0002H7.96962C7.81127 16.9798 7.65337 16.9558 7.49546 16.939C5.6995 16.7217 4.1089 16.0259 2.79376 14.7886C0.442905 12.5744 -0.437999 9.84978 0.202941 6.68167C0.964528 2.91843 4.38701 0.0953333 8.22423 0.00309274C9.99313 -0.0412537 11.6352 0.390237 13.114 1.36675C15.1641 2.72109 16.4225 4.6138 16.8696 7.03511C16.9268 7.34554 16.9583 7.65596 17 7.96904V9.03336C16.9881 9.07544 16.9789 9.11825 16.9725 9.16152C16.8483 10.7607 16.3205 12.2143 15.3682 13.5026C14.0171 15.3297 12.2189 16.4578 9.98027 16.8703C9.66712 16.9266 9.34864 16.9572 9.03194 17.0002ZM8.50233 1.26209C4.51298 1.26209 1.27236 4.49184 1.26216 8.48612C1.25195 12.4804 4.49125 15.7301 8.49213 15.7385C12.493 15.747 15.7354 12.5052 15.7403 8.50608C15.7452 4.50692 12.5014 1.26475 8.50233 1.26209Z" fill="white"/>
<path d="M9.03451 8.18858H9.23367C10.1407 8.18858 11.0478 8.18858 11.9549 8.18858C12.2574 8.18858 12.4943 8.35488 12.583 8.61519C12.6681 8.86486 12.6003 9.14735 12.3843 9.2999C12.2695 9.38403 12.1332 9.43371 11.9913 9.44314C10.791 9.45378 9.59073 9.45157 8.39091 9.44758C8.3102 9.4484 8.23013 9.4332 8.15534 9.40288C8.08054 9.37255 8.0125 9.32769 7.95516 9.2709C7.89782 9.21411 7.85232 9.14651 7.82128 9.07202C7.79025 8.99752 7.7743 8.91762 7.77437 8.83693C7.77052 7.17748 7.77052 5.51833 7.77437 3.85948C7.77432 3.77617 7.79105 3.69369 7.82355 3.61697C7.85605 3.54026 7.90367 3.47087 7.96356 3.41294C8.02345 3.355 8.09438 3.30971 8.17215 3.27977C8.24991 3.24982 8.33291 3.23583 8.41619 3.23863C8.76394 3.24395 9.03274 3.52023 9.03318 3.88564C9.03584 5.2456 9.03584 6.60556 9.03318 7.96552L9.03451 8.18858Z" fill="white"/>
</svg>
