<svg width="20" height="20" viewBox="0 0 20 20" fill="none" xmlns="http://www.w3.org/2000/svg">
<path d="M7.5 2.5H3.33333C2.8731 2.5 2.5 2.8731 2.5 3.33333V9.16667C2.5 9.6269 2.8731 10 3.33333 10H7.5C7.96024 10 8.33333 9.6269 8.33333 9.16667V3.33333C8.33333 2.8731 7.96024 2.5 7.5 2.5Z" stroke="white" stroke-width="1.33333" stroke-linecap="round" stroke-linejoin="round"/>
<path d="M16.6641 2.5H12.4974C12.0372 2.5 11.6641 2.8731 11.6641 3.33333V5.83333C11.6641 6.29357 12.0372 6.66667 12.4974 6.66667H16.6641C17.1243 6.66667 17.4974 6.29357 17.4974 5.83333V3.33333C17.4974 2.8731 17.1243 2.5 16.6641 2.5Z" stroke="white" stroke-width="1.33333" stroke-linecap="round" stroke-linejoin="round"/>
<path d="M16.6641 10H12.4974C12.0372 10 11.6641 10.3731 11.6641 10.8333V16.6667C11.6641 17.1269 12.0372 17.5 12.4974 17.5H16.6641C17.1243 17.5 17.4974 17.1269 17.4974 16.6667V10.8333C17.4974 10.3731 17.1243 10 16.6641 10Z" stroke="white" stroke-width="1.33333" stroke-linecap="round" stroke-linejoin="round"/>
<path d="M7.5 13.334H3.33333C2.8731 13.334 2.5 13.7071 2.5 14.1673V16.6673C2.5 17.1276 2.8731 17.5007 3.33333 17.5007H7.5C7.96024 17.5007 8.33333 17.1276 8.33333 16.6673V14.1673C8.33333 13.7071 7.96024 13.334 7.5 13.334Z" stroke="white" stroke-width="1.33333" stroke-linecap="round" stroke-linejoin="round"/>
</svg>
