<svg width="18" height="20" viewBox="0 0 18 20" fill="none" xmlns="http://www.w3.org/2000/svg">
<path d="M0.255859 9.63954C0.255859 8.3564 0.263109 7.07326 0.250059 5.7906C0.247158 5.47733 0.351565 5.295 0.63675 5.1534C3.24305 3.85668 5.84565 2.55171 8.44454 1.2385C8.53795 1.18523 8.64355 1.15723 8.751 1.15723C8.85844 1.15723 8.96404 1.18523 9.05745 1.2385C11.6783 2.55946 14.3012 3.87591 16.9261 5.18783C17.1567 5.30276 17.2505 5.46133 17.25 5.71592C17.2452 8.34234 17.2452 11.9688 17.25 14.5952C17.25 14.859 17.1495 15.0166 16.9116 15.1339C14.2918 16.4426 11.6744 17.7563 9.05938 19.075C8.96618 19.1287 8.86069 19.1571 8.75325 19.1575C8.6458 19.1579 8.54009 19.1303 8.44648 19.0774C5.81987 17.7519 3.19069 16.4324 0.558929 15.1189C0.341899 15.0108 0.251027 14.858 0.251994 14.618C0.258278 13.2902 0.255859 10.9649 0.255859 9.63954ZM1.04423 6.23189C1.03891 6.28524 1.03456 6.309 1.03456 6.33276C1.03456 8.675 1.03327 12.0173 1.03069 14.3595C1.03069 14.4764 1.08966 14.5132 1.1757 14.5535C3.51422 15.7251 5.85242 16.8975 8.19029 18.0707C8.23863 18.0954 8.29083 18.1192 8.36285 18.1498V17.9713C8.36285 15.6653 8.36366 12.3594 8.36527 10.0537C8.36527 9.93535 8.33337 9.8728 8.22364 9.81849C5.88351 8.64882 3.54467 7.4764 1.20712 6.30124C1.16023 6.2799 1.1119 6.26099 1.04423 6.23189ZM9.1401 18.1541C9.22276 18.1163 9.27158 18.0954 9.31847 18.0717C11.6518 16.902 13.9855 15.7332 16.3195 14.5651C16.4447 14.5026 16.4708 14.4264 16.4708 14.2984C16.4676 12.0108 16.4666 8.72334 16.4679 6.43605C16.4679 6.3735 16.4621 6.31094 16.4578 6.22268C11.7426 8.58793 11.6473 8.6812 9.31992 9.80006C9.17926 9.86746 9.13479 9.94554 9.13527 10.1012C9.14107 12.3765 9.14236 15.652 9.13914 17.9277L9.1401 18.1541ZM15.972 5.58305L8.76356 1.995C8.76356 1.995 2.13422 5.27317 1.62862 5.52777C1.59413 5.54889 1.56104 5.57222 1.52953 5.59759L3.21115 6.44236C5.01024 7.34466 6.80964 8.24616 8.60937 9.14685C8.67172 9.17837 8.76695 9.20746 8.8206 9.18176C9.36777 8.91747 15.4337 5.86498 15.972 5.58305Z" fill="#FFD705" stroke="#FFD705" stroke-width="0.5"/>
<path d="M0.75 8.71289L8.75 12.7129L16.75 8.71289" stroke="#FFD705" stroke-width="1.2"/>
</svg>
