<svg width="12" height="12" viewBox="0 0 12 12" fill="none" xmlns="http://www.w3.org/2000/svg">
<path fill-rule="evenodd" clip-rule="evenodd" d="M6 0H5.97879C4.95349 0 4.15535 -1.86265e-08 3.5174 0.0580465C2.86995 0.116651 2.34642 0.237768 1.88372 0.504558C1.31111 0.835323 0.835649 1.31098 0.505116 1.88372C0.237209 2.34698 0.116651 2.86995 0.0580465 3.5174C-1.86265e-08 4.15535 0 4.95349 0 5.97879V6.02121C0 7.04651 -1.86265e-08 7.84465 0.0580465 8.4826C0.116651 9.13005 0.237768 9.65358 0.504558 10.1163C0.835323 10.6889 1.31098 11.1643 1.88372 11.4949C2.34698 11.7628 2.86995 11.8833 3.5174 11.9425C4.15535 12 4.95349 12 5.97879 12H7.81395V10.4361C7.81395 9.93433 7.81395 9.51628 7.8586 9.18474C7.90549 8.83423 8.0093 8.51777 8.26326 8.26381C8.51777 8.0093 8.83423 7.90549 9.18419 7.8586C9.51628 7.81395 9.93488 7.81395 10.4361 7.81395H12V5.97879C12 4.95349 12 4.15535 11.942 3.5174C11.8833 2.86995 11.7622 2.34642 11.4954 1.88372C11.1647 1.31111 10.689 0.835649 10.1163 0.505116C9.65302 0.237209 9.13005 0.116651 8.4826 0.0580465C7.84465 -1.86265e-08 7.04651 0 6.02121 0H6ZM10.4774 11.0372C9.96269 11.4988 9.33088 11.8099 8.65116 11.9364V10.4651C8.65116 9.92707 8.65228 9.5654 8.68856 9.29581C8.72316 9.03851 8.78288 8.928 8.856 8.85544C8.92856 8.78288 9.03851 8.72316 9.29581 8.688C9.5654 8.65228 9.92707 8.65116 10.4651 8.65116H11.9364C11.8099 9.33088 11.4988 9.96269 11.0372 10.4774C10.9686 10.5533 10.8949 10.6275 10.7704 10.752L10.7609 10.7609L10.752 10.7704C10.6275 10.8949 10.5533 10.9686 10.4774 11.0372ZM3.76744 3.34884C3.65642 3.34884 3.54995 3.39294 3.47144 3.47144C3.39294 3.54995 3.34884 3.65642 3.34884 3.76744C3.34884 3.87846 3.39294 3.98494 3.47144 4.06344C3.54995 4.14194 3.65642 4.18605 3.76744 4.18605H8.23256C8.34358 4.18605 8.45005 4.14194 8.52856 4.06344C8.60706 3.98494 8.65116 3.87846 8.65116 3.76744C8.65116 3.65642 8.60706 3.54995 8.52856 3.47144C8.45005 3.39294 8.34358 3.34884 8.23256 3.34884H3.76744ZM3.34884 6C3.34884 5.88898 3.39294 5.78251 3.47144 5.704C3.54995 5.6255 3.65642 5.5814 3.76744 5.5814H7.11628C7.2273 5.5814 7.33377 5.6255 7.41228 5.704C7.49078 5.78251 7.53488 5.88898 7.53488 6C7.53488 6.11102 7.49078 6.21749 7.41228 6.296C7.33377 6.3745 7.2273 6.4186 7.11628 6.4186H3.76744C3.65642 6.4186 3.54995 6.3745 3.47144 6.296C3.39294 6.21749 3.34884 6.11102 3.34884 6ZM3.76744 7.81395C3.65642 7.81395 3.54995 7.85806 3.47144 7.93656C3.39294 8.01506 3.34884 8.12154 3.34884 8.23256C3.34884 8.34358 3.39294 8.45005 3.47144 8.52856C3.54995 8.60706 3.65642 8.65116 3.76744 8.65116H4.88372C4.99474 8.65116 5.10122 8.60706 5.17972 8.52856C5.25822 8.45005 5.30233 8.34358 5.30233 8.23256C5.30233 8.12154 5.25822 8.01506 5.17972 7.93656C5.10122 7.85806 4.99474 7.81395 4.88372 7.81395H3.76744Z" fill="#FFE24D"/>
</svg>
