<svg width="16" height="16" viewBox="0 0 16 16" fill="none" xmlns="http://www.w3.org/2000/svg">
<path fill-rule="evenodd" clip-rule="evenodd" d="M8 0H7.97172C6.60465 0 5.54047 -2.21785e-08 4.68986 0.0773953C3.8266 0.155535 3.12856 0.317023 2.51163 0.672744C1.74815 1.11376 1.1142 1.74797 0.673488 2.51163C0.316279 3.1293 0.155535 3.8266 0.0773953 4.68986C-2.21785e-08 5.54047 0 6.60465 0 7.97172V8.02828C0 9.39535 -2.21785e-08 10.4595 0.0773953 11.3101C0.155535 12.1734 0.317023 12.8714 0.672744 13.4884C1.11376 14.2519 1.74797 14.8858 2.51163 15.3265C3.1293 15.6837 3.8266 15.8445 4.68986 15.9233C5.54047 16 6.60465 16 7.97172 16H10.4186V13.9148C10.4186 13.2458 10.4186 12.6884 10.4781 12.2463C10.5407 11.779 10.6791 11.357 11.0177 11.0184C11.357 10.6791 11.779 10.5407 12.2456 10.4781C12.6884 10.4186 13.2465 10.4186 13.9148 10.4186H16V7.97172C16 6.60465 16 5.54047 15.9226 4.68986C15.8445 3.8266 15.683 3.12856 15.3273 2.51163C14.8862 1.74815 14.252 1.1142 13.4884 0.673488C12.8707 0.316279 12.1734 0.155535 11.3101 0.0773953C10.4595 -2.21785e-08 9.39535 0 8.02828 0H8ZM13.9699 14.7163C13.2836 15.3318 12.4412 15.7465 11.5349 15.9152V13.9535C11.5349 13.2361 11.5364 12.7539 11.5847 12.3944C11.6309 12.0513 11.7105 11.904 11.808 11.8073C11.9047 11.7105 12.0513 11.6309 12.3944 11.584C12.7539 11.5364 13.2361 11.5349 13.9535 11.5349H15.9152C15.7465 12.4412 15.3318 13.2836 14.7163 13.9699C14.6247 14.0711 14.5265 14.17 14.3606 14.336L14.3479 14.3479L14.336 14.3606C14.17 14.5265 14.0711 14.6247 13.9699 14.7163ZM5.02326 4.46512C4.87523 4.46512 4.73326 4.52392 4.62859 4.62859C4.52392 4.73326 4.46512 4.87523 4.46512 5.02326C4.46512 5.17128 4.52392 5.31325 4.62859 5.41792C4.73326 5.52259 4.87523 5.5814 5.02326 5.5814H10.9767C11.1248 5.5814 11.2667 5.52259 11.3714 5.41792C11.4761 5.31325 11.5349 5.17128 11.5349 5.02326C11.5349 4.87523 11.4761 4.73326 11.3714 4.62859C11.2667 4.52392 11.1248 4.46512 10.9767 4.46512H5.02326ZM4.46512 8C4.46512 7.85197 4.52392 7.71001 4.62859 7.60534C4.73326 7.50066 4.87523 7.44186 5.02326 7.44186H9.48837C9.6364 7.44186 9.77836 7.50066 9.88304 7.60534C9.98771 7.71001 10.0465 7.85197 10.0465 8C10.0465 8.14803 9.98771 8.28999 9.88304 8.39466C9.77836 8.49934 9.6364 8.55814 9.48837 8.55814H5.02326C4.87523 8.55814 4.73326 8.49934 4.62859 8.39466C4.52392 8.28999 4.46512 8.14803 4.46512 8ZM5.02326 10.4186C4.87523 10.4186 4.73326 10.4774 4.62859 10.5821C4.52392 10.6868 4.46512 10.8287 4.46512 10.9767C4.46512 11.1248 4.52392 11.2667 4.62859 11.3714C4.73326 11.4761 4.87523 11.5349 5.02326 11.5349H6.51163C6.65966 11.5349 6.80162 11.4761 6.90629 11.3714C7.01096 11.2667 7.06977 11.1248 7.06977 10.9767C7.06977 10.8287 7.01096 10.6868 6.90629 10.5821C6.80162 10.4774 6.65966 10.4186 6.51163 10.4186H5.02326Z" fill="#FFD705"/>
</svg>
