<svg width="16" height="16" viewBox="0 0 16 16" fill="none" xmlns="http://www.w3.org/2000/svg">
<path d="M12 14V6.66667C12 6.48986 11.9298 6.32029 11.8047 6.19526C11.6797 6.07024 11.5101 6 11.3333 6H4.66667C4.48986 6 4.32029 6.07024 4.19526 6.19526C4.07024 6.32029 4 6.48986 4 6.66667V14" fill="#FFD705"/>
<path d="M12 14V6.66667C12 6.48986 11.9298 6.32029 11.8047 6.19526C11.6797 6.07024 11.5101 6 11.3333 6H4.66667C4.48986 6 4.32029 6.07024 4.19526 6.19526C4.07024 6.32029 4 6.48986 4 6.66667V14" stroke="#F9F9F9" stroke-width="1.33333" stroke-linecap="round" stroke-linejoin="round"/>
<path d="M14.6693 12.6676C14.6693 13.0212 14.5288 13.3603 14.2787 13.6104C14.0287 13.8604 13.6896 14.0009 13.3359 14.0009H2.66927C2.31565 14.0009 1.97651 13.8604 1.72646 13.6104C1.47641 13.3603 1.33594 13.0212 1.33594 12.6676V5.33424C1.33579 5.08316 1.40654 4.83713 1.54005 4.62449C1.67356 4.41184 1.8644 4.24121 2.0906 4.13224L7.3906 1.48291C7.57988 1.38505 7.78986 1.33398 8.00294 1.33398C8.21602 1.33398 8.42599 1.38505 8.61527 1.48291L13.9139 4.13224C14.1403 4.24112 14.3312 4.4117 14.4649 4.62436C14.5985 4.83701 14.6694 5.08309 14.6693 5.33424V12.6676Z" fill="#FFD705" stroke="#F9F9F9" stroke-width="1.33333" stroke-linecap="round" stroke-linejoin="round"/>
<path d="M4 8.66602H12Z" fill="#FFD705"/>
<path d="M4 8.66602H12" stroke="#F9F9F9" stroke-width="1.33333" stroke-linecap="round" stroke-linejoin="round"/>
<path d="M4 11.334H12Z" fill="#FFD705"/>
<path d="M4 11.334H12" stroke="#F9F9F9" stroke-width="1.33333" stroke-linecap="round" stroke-linejoin="round"/>
</svg>
