<svg width="17" height="17" viewBox="0 0 17 17" fill="none" xmlns="http://www.w3.org/2000/svg">
<path d="M3.33273 13.5412C3.23809 13.5763 3.14389 13.6114 3.04883 13.6452C2.42172 13.869 1.84825 13.6723 1.51507 13.1183C1.08769 12.407 0.653343 11.6779 0.187591 10.8887C-0.142097 10.3284 -0.0330735 9.74685 0.481959 9.33958C0.554351 9.28165 0.627183 9.22413 0.700007 9.16662C0.843047 9.05243 0.99263 8.93402 1.1361 8.81222C1.3934 8.59484 1.53469 8.30726 1.53426 8.00276C1.53382 7.69826 1.39253 7.40984 1.13087 7.19077C0.994375 7.07531 0.852639 6.96324 0.715271 6.85498C0.625431 6.78435 0.538215 6.71457 0.450999 6.64352C-0.0164975 6.2629 -0.132937 5.66786 0.160991 5.16333C0.623255 4.3691 1.08857 3.58714 1.54517 2.83732C1.84694 2.34125 2.41038 2.14374 2.9808 2.33406C3.13649 2.38607 3.29392 2.44359 3.44655 2.49899C3.56865 2.5434 3.69469 2.59034 3.81985 2.63263C4.15913 2.74935 4.49841 2.72567 4.77926 2.56285C5.06011 2.40002 5.24633 2.11837 5.30258 1.76989L5.31479 1.69334C5.35491 1.44425 5.39634 1.18585 5.45216 0.936752C5.55988 0.447864 5.85991 0.149288 6.36797 0.024952C6.3889 0.019536 6.4089 0.011128 6.42728 0H9.58027L9.63261 0.016496C9.68145 0.031296 9.72768 0.045256 9.77129 0.062168C10.2244 0.231336 10.4843 0.547248 10.5667 1.02302C10.5807 1.10253 10.5933 1.18246 10.6064 1.26239C10.6409 1.47723 10.6771 1.69926 10.7307 1.91579C10.7634 2.05388 10.8254 2.18383 10.9128 2.29736C11.0002 2.41089 11.1111 2.50548 11.2383 2.57511C11.3675 2.64558 11.5105 2.68914 11.658 2.70297C11.8056 2.71681 11.9545 2.70062 12.0952 2.65546C12.2897 2.59498 12.4829 2.52351 12.6696 2.45458C12.7647 2.41948 12.8593 2.38438 12.9548 2.35054C13.5697 2.13444 14.1523 2.33447 14.4794 2.87876C14.9565 3.67045 15.3935 4.40462 15.8147 5.12019C16.1405 5.67336 16.031 6.24894 15.5221 6.65959C15.4475 6.71965 15.3725 6.77886 15.2975 6.83806C15.1553 6.95056 15.0084 7.06728 14.8671 7.18697C14.6076 7.40688 14.4646 7.69785 14.4641 7.99896C14.4637 8.30007 14.6059 8.58807 14.8636 8.80757C15.0044 8.9281 15.1519 9.0444 15.2945 9.15689C15.3778 9.22244 15.461 9.28842 15.5435 9.35523C16.0219 9.74219 16.1352 10.3279 15.833 10.8464C15.3786 11.6233 14.9172 12.4006 14.4558 13.1568C14.1523 13.6562 13.5832 13.8542 13.0062 13.6609C12.8501 13.6089 12.6922 13.5509 12.54 13.4955C12.4232 13.4532 12.3024 13.411 12.1829 13.3687C11.8427 13.2507 11.5008 13.2748 11.2187 13.4372C10.9365 13.5996 10.7507 13.8791 10.6953 14.2246L10.6932 14.2369C10.6474 14.5228 10.5998 14.8184 10.5353 15.1039C10.4786 15.3584 10.3333 15.5864 10.1238 15.7494C9.91434 15.9124 9.65344 16.0006 9.38486 15.9992C8.52269 15.9992 7.66489 15.9992 6.64268 15.9992C6.01469 15.9987 5.52757 15.5915 5.42989 14.9867L5.40503 14.8286C5.36709 14.5867 5.32741 14.3363 5.26766 14.0931C5.21511 13.8651 5.08401 13.6612 4.89597 13.5152C4.70793 13.3691 4.47417 13.2895 4.23324 13.2896C4.11197 13.2899 3.99152 13.309 3.87651 13.3463C3.69248 13.4055 3.50935 13.4736 3.33273 13.5412ZM3.47489 12.3579C3.77087 12.2523 4.08701 12.2105 4.40134 12.2354C4.71565 12.2603 5.02062 12.3512 5.29503 12.5019C5.56944 12.6527 5.80671 12.8595 5.99034 13.1082C6.17397 13.3568 6.29957 13.6413 6.35838 13.9417C6.39982 14.1477 6.43688 14.3591 6.47264 14.563C6.4895 14.6597 6.50666 14.756 6.5241 14.8518L6.53979 14.9394H9.45685L9.47255 14.8518C9.49261 14.7423 9.51093 14.6336 9.52925 14.5249C9.56849 14.2881 9.60644 14.0644 9.66008 13.8406C9.73159 13.5484 9.86736 13.2745 10.0581 13.0378C10.2488 12.8011 10.49 12.6071 10.7652 12.4691C11.0473 12.3254 11.3586 12.2434 11.677 12.2288C11.9953 12.2141 12.3132 12.2673 12.6081 12.3846C12.7804 12.4497 12.9496 12.5114 13.1292 12.5766C13.2121 12.6062 13.2954 12.6362 13.38 12.6675L13.4672 12.6988L14.9299 10.2434L14.6499 10.0196C14.5012 9.90164 14.3577 9.78703 14.2138 9.67326C13.663 9.23809 13.3796 8.68534 13.3713 8.02941C13.3625 7.34471 13.6508 6.76871 14.2282 6.31619C14.3726 6.20285 14.5186 6.0857 14.6599 5.97237L14.8575 5.81378L14.9303 5.75838L13.4694 3.30549L13.3822 3.33594L13.0769 3.44716C12.8589 3.52709 12.6535 3.60237 12.4419 3.66961C12.1497 3.76169 11.8407 3.79256 11.5353 3.76019C11.2298 3.72782 10.935 3.63295 10.6701 3.48184C10.4053 3.33074 10.1766 3.12683 9.9991 2.88363C9.8216 2.64042 9.69935 2.36343 9.64045 2.071C9.59902 1.85955 9.56064 1.64513 9.52401 1.43663C9.50657 1.33767 9.48912 1.23914 9.47124 1.14059L9.45554 1.05347H6.72078C6.69897 1.05347 6.67891 1.05728 6.65536 1.05728L6.62483 1.05982L6.54023 1.06574L6.52541 1.14694C6.50578 1.25478 6.48834 1.36263 6.47046 1.47004C6.43338 1.69545 6.39545 1.92847 6.33962 2.15008C6.2699 2.44043 6.13693 2.71296 5.94964 2.94937C5.76235 3.18578 5.52507 3.38059 5.25374 3.52074C4.97936 3.66117 4.67753 3.74392 4.36794 3.76359C4.05834 3.78327 3.74796 3.73943 3.45702 3.63492C3.26689 3.56768 3.07718 3.49917 2.88574 3.42981L2.52944 3.30294L1.06982 5.75583L1.14046 5.81292C1.22289 5.87974 1.30531 5.94487 1.38686 6.01C1.56871 6.15422 1.7401 6.28997 1.90712 6.43587C2.13493 6.6275 2.31713 6.86481 2.44114 7.13139C2.56514 7.39797 2.628 7.68748 2.62538 7.97992C2.63061 8.66039 2.3441 9.23259 1.77411 9.6813C1.62802 9.79548 1.48367 9.91094 1.33802 10.0281L1.13828 10.1875L1.0672 10.2446L2.52987 12.6975L2.61709 12.6658C2.71434 12.6307 2.80941 12.5956 2.90274 12.5613C3.09898 12.489 3.28606 12.4209 3.47489 12.3579Z" fill="white"/>
<path d="M10.2079 5.86091C10.7911 6.42767 11.1185 7.19584 11.1179 7.99656C11.1174 8.79728 10.789 9.56502 10.2049 10.131C9.62088 10.697 8.82898 11.015 8.00329 11.015C7.1776 11.015 6.3857 10.697 5.80166 10.131C5.21762 9.56502 4.88922 8.79728 4.88867 7.99656C4.88812 7.19584 5.21546 6.42767 5.79872 5.86091C6.38198 5.29415 7.17345 4.97519 7.99914 4.97412H8.00742C8.83311 4.97519 9.62459 5.29415 10.2079 5.86091ZM8.00701 9.95686C8.5424 9.95574 9.05541 9.74841 9.43317 9.38048C9.81093 9.01255 10.0225 8.51418 10.0213 7.99497C10.0202 7.47577 9.80639 6.97827 9.427 6.61194C9.0476 6.2456 8.53368 6.04042 7.99829 6.04154C7.46415 6.04299 6.95226 6.24914 6.57419 6.61506C6.19613 6.98098 5.98255 7.47698 5.98002 7.99497C5.97933 8.51338 6.19051 9.01093 6.56732 9.37865C6.94414 9.74637 7.45586 9.95428 7.99043 9.95686H8.00701Z" fill="white"/>
</svg>
