<svg width="17" height="17" viewBox="0 0 17 17" fill="none" xmlns="http://www.w3.org/2000/svg">
<g clip-path="url(#clip0_2_2280)">
<path d="M9.10851 12.1307C9.10851 11.3594 9.11713 10.588 9.10851 9.8172C9.0999 9.23489 9.3208 8.76052 9.73523 8.36877C10.2925 7.84423 10.9715 7.56905 11.7066 7.42359C13.0006 7.1702 14.2738 7.22696 15.4882 7.78342C15.8003 7.93301 16.0902 8.12523 16.3495 8.35458C16.7918 8.73468 17.0046 9.23083 17.001 9.82784C16.9909 11.3634 16.9909 12.8992 17.001 14.4351C17.0056 15.0701 16.7624 15.5749 16.2963 15.9829C15.6919 16.512 14.9648 16.7705 14.1876 16.8992C12.9925 17.0963 11.8206 17.0193 10.6948 16.5383C10.2429 16.3452 9.83961 16.0766 9.52599 15.6895C9.2518 15.3618 9.10342 14.947 9.1075 14.5198C9.11156 13.7231 9.10851 12.9269 9.10851 12.1307ZM13.0452 10.9747C13.5103 10.8962 13.9799 10.8374 14.4389 10.733C14.8562 10.6461 15.2409 10.4443 15.5495 10.1502C15.8596 9.84608 15.8662 9.56481 15.5419 9.27391C15.3655 9.11171 15.1639 8.97922 14.9451 8.88164C13.7114 8.36116 12.4625 8.36319 11.2228 8.85276C10.9791 8.95629 10.755 9.10079 10.5601 9.27999C10.2358 9.56633 10.2419 9.85825 10.5636 10.1517C10.723 10.2947 10.9007 10.4159 11.092 10.512C11.7015 10.8232 12.3602 10.9149 13.0452 10.9752V10.9747ZM10.3224 11.5226C10.3298 11.659 10.3298 11.7957 10.3224 11.9321C10.2834 12.2747 10.441 12.5164 10.7044 12.7029C10.8373 12.7982 10.9774 12.8829 11.1234 12.9563C11.6058 13.194 12.1241 13.3024 12.656 13.3379C13.4991 13.3932 14.328 13.3156 15.0824 12.9051C15.8768 12.4723 15.815 12.2665 15.7679 11.5317C13.9576 12.3532 12.1509 12.3568 10.3224 11.5226ZM10.3224 13.9506C10.3301 14.0734 10.3291 14.1965 10.3194 14.3191C10.2616 14.7245 10.4714 14.9779 10.7754 15.1867C10.8788 15.2587 10.9881 15.3217 11.1022 15.3752C12.1185 15.8395 13.1723 15.882 14.2479 15.6428C14.6831 15.547 15.1016 15.3945 15.4396 15.097C15.5912 14.9678 15.7046 14.7996 15.7674 14.6105C15.8236 14.4078 15.7805 14.1756 15.7805 13.9516C13.9602 14.7813 12.153 14.7848 10.3224 13.9506Z" fill="white"/>
<path d="M0.00555981 13.3469C0.00555981 13.0119 0.0197434 12.6764 0.00302411 12.3419C-0.0364943 11.566 0.313595 10.9944 0.918531 10.555C1.55842 10.0907 2.29155 9.86876 3.06469 9.77095C4.14739 9.63462 5.2083 9.72027 6.22717 10.1343C6.70038 10.3274 7.12495 10.597 7.45629 10.9959C7.74429 11.329 7.90037 11.7561 7.89505 12.1965C7.89049 12.9486 7.88441 13.7007 7.89505 14.4522C7.90518 15.0726 7.65946 15.5672 7.20703 15.9691C6.59905 16.5073 5.86847 16.7693 5.08519 16.899C3.89002 17.0967 2.71814 17.0202 1.59237 16.5397C1.13994 16.3466 0.737156 16.0785 0.423036 15.6919C0.146946 15.3654 -0.00218115 14.9503 0.00302411 14.5227C0.00859722 14.1304 0.00555981 13.7387 0.00555981 13.3469ZM4.01414 10.9259C3.42897 10.9259 2.91674 10.9938 2.42175 11.1591C2.04126 11.2858 1.68002 11.4525 1.40339 11.7551C1.15919 12.0221 1.15007 12.2684 1.40643 12.5213C1.57426 12.6922 1.77057 12.8325 1.98654 12.9359C3.26431 13.5035 4.55777 13.5045 5.84466 12.9699C6.08008 12.8634 6.29495 12.7164 6.47948 12.5355C6.75459 12.2771 6.75509 12.0049 6.47948 11.7459C6.29028 11.5704 6.07641 11.4236 5.84466 11.3101C5.25087 11.0167 4.60743 10.9351 4.01414 10.9244V10.9259ZM6.67707 13.9535C4.85315 14.7837 3.03986 14.7842 1.21948 13.9535C1.22714 14.0768 1.22613 14.2004 1.21644 14.3235C1.15767 14.7289 1.36843 14.9823 1.67242 15.1901C1.77035 15.2589 1.87391 15.3192 1.98199 15.3705C2.99528 15.8409 4.05113 15.8824 5.12724 15.6503C5.56194 15.5565 5.98296 15.4065 6.3214 15.1095C6.4781 14.9772 6.59609 14.8048 6.66288 14.6109C6.72216 14.4066 6.67707 14.175 6.67707 13.9535Z" fill="white"/>
<path d="M6.06873 3.28931C4.93485 4.42403 3.81871 5.54202 2.70257 6.65951C2.55919 6.80293 2.41835 6.94788 2.27294 7.08826C2.00543 7.34572 1.63507 7.34977 1.39289 7.10093C1.15072 6.8521 1.15882 6.49277 1.41417 6.23481C2.81555 4.8293 4.21863 3.42581 5.62339 2.02435C5.90508 1.74307 6.25162 1.75118 6.54295 2.04208C7.54948 3.04588 8.55518 4.0512 9.56003 5.05803C9.61069 5.10871 9.66135 5.15179 9.69631 5.18727L13.6603 1.22513C13.6132 1.22208 13.559 1.21601 13.5083 1.21601C13.066 1.21601 12.6237 1.21601 12.1814 1.21601C11.8105 1.21347 11.539 0.958047 11.5365 0.614439C11.5339 0.27083 11.8019 0.00627942 12.1708 0.00323863C13.1628 0.000873581 14.1548 0.000873581 15.1468 0.00323863C15.5238 0.00323863 15.7811 0.256639 15.7821 0.632176C15.7859 1.6309 15.7859 2.62963 15.7821 3.62836C15.7899 3.71255 15.7799 3.79742 15.753 3.87755C15.7261 3.95769 15.6828 4.03133 15.6258 4.09378C15.5688 4.15622 15.4994 4.2061 15.4221 4.24022C15.3448 4.27435 15.2612 4.29197 15.1767 4.29197C15.0922 4.29197 15.0086 4.27435 14.9313 4.24022C14.854 4.2061 14.7846 4.15622 14.7276 4.09378C14.6707 4.03133 14.6273 3.95769 14.6004 3.87755C14.5735 3.79742 14.5636 3.71255 14.5713 3.62836C14.5667 3.12916 14.5713 2.62997 14.5713 2.08465C14.4993 2.15104 14.4517 2.1926 14.4071 2.23669C13.0223 3.62194 11.6374 5.00718 10.2526 6.39243C9.86908 6.77607 9.56813 6.77658 9.18409 6.39243C8.20052 5.40924 7.21746 4.42589 6.23491 3.44236C6.18323 3.39624 6.13256 3.35012 6.06873 3.28931Z" fill="white"/>
</g>
<defs>
<clipPath id="clip0_2_2280">
<rect width="17" height="17" fill="white"/>
</clipPath>
</defs>
</svg>
