<svg width="15" height="18" viewBox="0 0 15 18" fill="none" xmlns="http://www.w3.org/2000/svg">
<path d="M9.46014 8.07666C9.91725 8.30285 10.4001 8.49575 10.8368 8.76502C12.7353 9.93465 13.8851 11.6335 14.1699 13.8567C14.2896 14.7899 14.2356 15.7456 14.2492 16.6915C14.2494 16.7499 14.238 16.8079 14.2159 16.8619C14.1937 16.916 14.1612 16.9652 14.1202 17.0066C14.0791 17.048 14.0303 17.0809 13.9766 17.1034C13.923 17.1258 13.8654 17.1374 13.8072 17.1375C13.6906 17.1454 13.5755 17.1074 13.4863 17.0315C13.397 16.9555 13.3407 16.8476 13.3292 16.7306C13.3207 16.6518 13.3172 16.5725 13.3185 16.4932C13.3024 15.6751 13.3496 14.8506 13.2601 14.0408C12.9753 11.4715 11.0895 9.55277 8.97627 8.95449C8.83364 9.55228 8.64379 10.1202 8.78155 10.7723C9.08823 12.2034 9.31703 13.6506 9.58087 15.0905C9.62955 15.3446 9.56237 15.5399 9.34916 15.6971C8.76208 16.1309 8.18085 16.5749 7.59669 17.0131C7.35913 17.1913 7.1688 17.1943 6.9327 17.0175C6.33345 16.5686 5.73762 16.1162 5.13934 15.6667C4.95339 15.5267 4.89595 15.3495 4.9383 15.1204C5.23622 13.494 5.53089 11.8672 5.82232 10.2402C5.8347 10.1922 5.83751 10.1423 5.83059 10.0933C5.74151 9.71482 5.64756 9.33784 5.55166 8.94617C4.89746 9.13114 4.28196 9.43368 3.73494 9.83918C2.06961 11.0847 1.2182 12.7537 1.19337 14.8433C1.18656 15.4308 1.19337 16.0183 1.19337 16.6024C1.19094 16.9294 1.01813 17.1296 0.743088 17.1384C0.49969 17.1463 0.266027 16.9749 0.267487 16.7306C0.277223 15.5125 0.147249 14.2827 0.474376 13.0851C1.1296 10.6839 2.61709 9.04343 4.93683 8.16381C4.97091 8.15108 5.00548 8.13933 5.03906 8.12562C5.05336 8.11734 5.06702 8.10801 5.07995 8.09771C3.74467 7.2003 3.02957 5.96115 3.06705 4.33376C3.09383 3.15875 3.55385 2.16342 4.41499 1.3693C4.83452 0.979587 5.32877 0.680164 5.86745 0.489398C6.40613 0.298632 6.97788 0.220545 7.54764 0.259923C8.11739 0.299301 8.67314 0.455315 9.18081 0.718398C9.68848 0.981482 10.1374 1.34609 10.4999 1.78986C10.8811 2.25622 11.1586 2.7992 11.3138 3.38235C11.4691 3.9655 11.4984 4.5753 11.3999 5.1708C11.3014 5.7663 11.0774 6.33371 10.7428 6.83492C10.4082 7.33612 9.97088 7.75952 9.46014 8.07666ZM10.5204 4.46203C10.5179 4.02743 10.4298 3.59763 10.2613 3.19744C10.0927 2.79724 9.84709 2.43457 9.53849 2.13034C9.22988 1.82612 8.86444 1.58636 8.46324 1.4249C8.06203 1.26344 7.63301 1.18348 7.20092 1.18963C5.41633 1.21508 3.95886 2.72497 3.98807 4.51638C4.01825 6.32149 5.48546 7.77312 7.26324 7.75696C9.08191 7.73885 10.5423 6.26127 10.5204 4.46056V4.46203ZM6.71997 10.5819C6.7078 10.6308 6.6966 10.6646 6.69028 10.7004C6.43065 12.1215 6.17443 13.5429 5.92163 14.9647C5.92133 14.998 5.92838 15.0311 5.94227 15.0614C5.95615 15.0917 5.97653 15.1185 6.00195 15.1399C6.38116 15.4337 6.76816 15.7191 7.14835 16.0129C7.23257 16.0775 7.28855 16.0707 7.36887 16.0085C7.74468 15.7186 8.1234 15.4331 8.50505 15.1517C8.59365 15.0866 8.60241 15.0229 8.58537 14.9201C8.41694 14.0095 8.25533 13.0974 8.0903 12.1858C7.99294 11.6526 7.89558 11.1204 7.79822 10.5819H6.71997ZM8.05671 8.73418H6.47316C6.54667 9.03381 6.60752 9.29916 6.68054 9.56158C6.69309 9.58283 6.7105 9.60076 6.73133 9.61387C6.75216 9.62699 6.7758 9.63491 6.80029 9.63698C7.10405 9.64351 7.40765 9.64351 7.71109 9.63698C7.73563 9.63487 7.75932 9.62693 7.78022 9.61383C7.80112 9.60072 7.81864 9.58282 7.83133 9.56158C7.9097 9.2977 7.97688 9.03283 8.05671 8.73124V8.73418Z" fill="#FFD705" stroke="#FFD705" stroke-width="0.5"/>
<path d="M11.1205 13.4484C11.3229 13.4484 11.5248 13.4459 11.7271 13.4484C11.9767 13.453 12.1524 13.6078 12.162 13.8264C12.1725 14.0575 12.0127 14.2369 11.7547 14.2436C11.329 14.2547 10.9031 14.2547 10.4771 14.2436C10.4221 14.2434 10.3678 14.2326 10.3173 14.2119C10.2668 14.1911 10.2212 14.1609 10.1832 14.123C10.1453 14.0851 10.1158 14.0403 10.0964 13.9913C10.0771 13.9422 10.0683 13.89 10.0707 13.8376C10.0773 13.614 10.2586 13.4551 10.5144 13.4484H11.1205Z" fill="#FFD705"/>
</svg>
