<svg width="17" height="17" viewBox="0 0 17 17" fill="none" xmlns="http://www.w3.org/2000/svg">
<g clip-path="url(#clip0_2_2285)">
<path d="M8.11982 16.111C6.87486 16.111 5.62942 16.1152 4.38304 16.111C2.34342 16.1021 0.640106 14.8112 0.143918 12.8798C0.0529598 12.5112 0.00737621 12.133 0.00816416 11.7536C-0.00350344 9.28816 -0.00507899 6.82289 0.00343521 4.35777C0.00863832 2.18843 1.46078 0.463009 3.6125 0.0646173C3.86843 0.0216776 4.12776 0.00188744 4.3873 0.00549152C6.61234 0.0014247 8.83722 0.0014247 11.0619 0.00549152C11.4517 0.00549152 11.6991 0.218532 11.7043 0.552637C11.7097 0.685573 11.6659 0.815879 11.5813 0.919056C11.4966 1.02223 11.3768 1.09117 11.2445 1.11292C11.163 1.12568 11.0806 1.13118 10.9981 1.12934C8.79671 1.12934 6.59547 1.12934 4.39439 1.12934C2.86799 1.12934 1.61025 2.07816 1.24036 3.51359C1.17254 3.78593 1.13871 4.06551 1.13961 4.34604C1.13235 6.82304 1.13141 9.30005 1.13677 11.7771C1.14102 13.4368 2.30179 14.7441 3.9578 14.9679C4.08085 14.9824 4.20475 14.9887 4.32865 14.9867C6.85452 14.9867 9.3804 14.9956 11.9063 14.9867C13.4582 14.9797 14.7202 13.9473 15.0386 12.4443C15.0859 12.1969 15.1074 11.9453 15.1029 11.6935C15.1081 9.77852 15.1052 7.86399 15.1071 5.94899C15.1044 5.84972 15.1136 5.75047 15.1346 5.65336C15.1692 5.52799 15.2473 5.41873 15.3551 5.34477C15.4629 5.2708 15.5935 5.23685 15.7239 5.24887C15.8541 5.2612 15.9759 5.3177 16.0689 5.40884C16.1619 5.49998 16.2203 5.62016 16.2343 5.74909C16.2386 5.79602 16.2386 5.84294 16.2386 5.88986C16.2386 7.85132 16.2452 9.81278 16.2386 11.7747C16.2305 13.708 15.0428 15.3255 13.2146 15.9144C12.7635 16.0541 12.2928 16.1216 11.8202 16.1143C10.5866 16.1087 9.35343 16.111 8.11982 16.111Z" fill="white" stroke="white" stroke-width="0.3"/>
<path d="M9.193 8.20917L10.8254 6.35799C11.0316 6.12337 11.2355 5.88875 11.4441 5.65741C11.6862 5.389 12.0282 5.35755 12.2747 5.57575C12.5211 5.79395 12.5287 6.13228 12.2889 6.40539C11.4311 7.37986 10.5725 8.35371 9.71284 9.32693C9.46498 9.60848 9.14523 9.631 8.85338 9.39215C8.30374 8.9398 7.75536 8.48619 7.20825 8.03133C7.16095 7.99098 7.1075 7.95297 7.04743 7.90651L5.8895 9.22041C5.52812 9.63006 5.16531 10.0388 4.8063 10.4503C4.6696 10.6066 4.50451 10.6948 4.2945 10.6755C4.19017 10.6702 4.08973 10.6346 4.00563 10.5731C3.92154 10.5116 3.8575 10.427 3.82149 10.3297C3.77827 10.2324 3.76505 10.1245 3.78348 10.0197C3.80192 9.91492 3.85119 9.81788 3.92509 9.7408C4.38643 9.21556 4.84855 8.6911 5.31147 8.16742L6.51198 6.8066C6.78159 6.50112 7.09283 6.47812 7.4107 6.73855C7.9996 7.22188 8.58802 7.70896 9.193 8.20917Z" fill="white" stroke="white" stroke-width="0.3"/>
<path d="M14.9155 1.33211e-06C15.3264 -0.000462172 15.7281 0.12004 16.0699 0.346249C16.4118 0.572458 16.6782 0.8942 16.8356 1.27073C16.9929 1.64727 17.0342 2.06166 16.954 2.46144C16.8738 2.86122 16.6758 3.22841 16.3852 3.5165C16.0945 3.8046 15.7242 4.00065 15.3211 4.07983C14.9181 4.15901 14.5004 4.11776 14.121 3.9613C13.7416 3.80484 13.4175 3.54021 13.1898 3.20091C12.9621 2.86162 12.841 2.46293 12.8418 2.05531C12.8437 1.51046 13.0628 0.988473 13.4513 0.603376C13.8399 0.21828 14.3662 0.00136186 14.9155 1.33211e-06ZM14.9235 1.1262C14.7981 1.12314 14.6732 1.14498 14.5564 1.19043C14.4396 1.23589 14.333 1.30404 14.2431 1.39089C14.1532 1.47774 14.0817 1.58154 14.0327 1.69619C13.9838 1.81085 13.9584 1.93404 13.9582 2.05855C13.9579 2.18305 13.9827 2.30636 14.0311 2.42123C14.0795 2.5361 14.1505 2.64021 14.2401 2.72747C14.3296 2.81472 14.4358 2.88335 14.5524 2.92933C14.6691 2.97531 14.7938 2.9977 14.9193 2.99521C15.0447 2.99827 15.1695 2.97643 15.2864 2.93097C15.4032 2.88552 15.5097 2.81736 15.5997 2.73051C15.6896 2.64366 15.7611 2.53987 15.8101 2.42522C15.859 2.31056 15.8843 2.18737 15.8846 2.06287C15.8849 1.93836 15.8601 1.81505 15.8117 1.70018C15.7633 1.58531 15.6922 1.48119 15.6027 1.39394C15.5132 1.30669 15.407 1.23806 15.2903 1.19208C15.1737 1.1461 15.049 1.1237 14.9235 1.1262Z" fill="white"/>
</g>
<defs>
<clipPath id="clip0_2_2285">
<rect width="17" height="16.113" fill="white"/>
</clipPath>
</defs>
</svg>
