<svg width="18" height="18" viewBox="0 0 18 18" fill="none" xmlns="http://www.w3.org/2000/svg">
<path d="M2.13235 2.13889V15.3611H4.01471V17.25H0.25V0.25H4.01471V2.13889H2.13235ZM16.25 4.97222C16.25 4.45062 15.8272 4.02778 15.3056 4.02778H4.95915C4.43755 4.02778 4.01471 4.45062 4.01471 4.97222C4.01471 5.49382 4.43755 5.91667 4.95915 5.91667H15.3056C15.8272 5.91667 16.25 5.49382 16.25 4.97222ZM16.25 8.75C16.25 8.2284 15.8272 7.80556 15.3056 7.80556H4.95915C4.43755 7.80556 4.01471 8.2284 4.01471 8.75C4.01471 9.2716 4.43755 9.69445 4.95915 9.69445H15.3056C15.8272 9.69445 16.25 9.2716 16.25 8.75ZM16.25 12.5278C16.25 12.0062 15.8272 11.5833 15.3056 11.5833H4.95915C4.43755 11.5833 4.01471 12.0062 4.01471 12.5278C4.01471 13.0494 4.43755 13.4722 4.95915 13.4722H15.3056C15.8272 13.4722 16.25 13.0494 16.25 12.5278Z" fill="#FFD705" stroke="white" stroke-width="0.5"/>
</svg>
