<svg width="16" height="16" viewBox="0 0 16 16" fill="none" xmlns="http://www.w3.org/2000/svg">
<path fill-rule="evenodd" clip-rule="evenodd" d="M11.4854 9.14286C12.6889 9.20661 13.8257 9.78213 14.6643 10.7524C15.503 11.7226 15.9806 13.0146 16 14.3657V15.0857C16 15.3282 15.9141 15.5608 15.7612 15.7322C15.6083 15.9037 15.4009 16 15.1847 16H13.7682C13.8873 15.7334 13.9534 15.4409 13.9618 15.1429V14.3543C13.9312 12.1829 12.9529 10.2971 11.4854 9.14286ZM8.20382 9.14286C10.7924 9.14286 12.8917 11.4743 12.9427 14.3657V15.0857C12.9427 15.3282 12.8568 15.5608 12.7039 15.7322C12.551 15.9037 12.3436 16 12.1274 16H0.815287C0.599059 16 0.391688 15.9037 0.238792 15.7322C0.085896 15.5608 0 15.3282 0 15.0857V14.4571C0 13.0477 0.499271 11.696 1.38798 10.6994C2.27669 9.70275 3.48203 9.14286 4.73885 9.14286H8.20382ZM9.54904 0C10.495 0.0257639 11.3932 0.4719 12.0458 1.24026C12.6985 2.00863 13.0523 3.03628 13.0293 4.09714C13.0063 5.15801 12.6085 6.16519 11.9233 6.89712C11.2382 7.62905 10.3218 8.02576 9.3758 8C9.90775 7.51791 10.3368 6.9085 10.6316 6.21639C10.9263 5.52428 11.0793 4.76699 11.0793 4C11.0793 3.23301 10.9263 2.47572 10.6316 1.78361C10.3368 1.0915 9.90775 0.482086 9.3758 0L9.54904 0ZM6.49172 0C7.43772 0 8.34496 0.421427 9.01388 1.17157C9.6828 1.92172 10.0586 2.93913 10.0586 4C10.0586 5.06087 9.6828 6.07828 9.01388 6.82843C8.34496 7.57857 7.43772 8 6.49172 8C5.54572 8 4.63848 7.57857 3.96956 6.82843C3.30064 6.07828 2.92484 5.06087 2.92484 4C2.92484 2.93913 3.30064 1.92172 3.96956 1.17157C4.63848 0.421427 5.54572 0 6.49172 0Z" fill="#FFD705"/>
</svg>
