<svg width="18" height="21" viewBox="0 0 18 21" fill="none" xmlns="http://www.w3.org/2000/svg">
<path d="M15.2601 2.62658C15.8535 2.62658 16.4299 2.70028 16.9807 2.83909C14.6894 0.610173 11.3767 -0.483107 8.01313 0.203562C6.90013 0.430793 5.86813 0.835243 4.94043 1.38163C5.10283 1.36255 5.27263 1.34807 5.44693 1.33768C6.22583 1.29125 7.11543 1.32541 7.87533 1.40826C8.55253 1.4821 9.56053 1.65178 10.4671 1.93642C10.9202 2.07866 11.3561 2.25211 11.7149 2.46139C12.0484 2.6559 12.3386 2.89473 12.5006 3.1897C13.3485 2.82714 14.281 2.62658 15.2601 2.62658Z" fill="#FFE24D"/>
<path d="M12.0759 3.38829C11.9689 3.21109 11.769 3.03469 11.4802 2.8663C11.1626 2.68106 10.7626 2.51997 10.3277 2.38341C9.45828 2.11046 8.48178 1.94553 7.82478 1.8739C7.08638 1.79338 6.22318 1.76061 5.47458 1.80523C5.10008 1.82755 4.75968 1.86894 4.48048 1.9314C4.19478 1.99528 3.99888 2.07579 3.89137 2.16017L3.85893 2.11858C2.41301 3.25009 1.30538 4.76069 0.655273 6.46979C0.938623 6.38989 1.27575 6.33789 1.64727 6.30929C2.3927 6.25189 3.30055 6.28659 4.24098 6.39439C5.18228 6.50219 6.14878 6.68879 6.95208 6.94839C7.35368 7.07819 7.71988 7.22799 8.02368 7.39849C8.19418 7.49419 8.35008 7.59929 8.48268 7.71489C9.04158 5.82469 10.3575 4.26339 12.0759 3.38829Z" fill="#FFD705"/>
<path d="M8.3466 8.24994C8.2397 8.10404 8.0565 7.95404 7.7955 7.80754C7.5271 7.65684 7.1917 7.51824 6.8087 7.39454C6.0429 7.14694 5.1082 6.96544 4.1878 6.85994C3.26641 6.75434 2.38982 6.72214 1.68285 6.77654C1.32919 6.80384 1.02396 6.85234 0.779439 6.92144C0.649909 6.95814 0.54292 6.99904 0.45686 7.04234C-0.0334607 8.60934 -0.14663 10.3193 0.202899 12.0427C0.268889 12.3681 0.34989 12.6866 0.44501 12.9976C0.46433 13.0049 0.485949 13.0127 0.50994 13.021C0.64964 13.0693 0.86954 13.1333 1.17915 13.1897C1.79827 13.3027 2.77743 13.386 4.1927 13.2539C5.6241 13.1203 6.6392 12.9629 7.3501 12.7522C8.0025 12.5588 8.3666 12.3297 8.5683 12.0639C8.3223 11.3396 8.1888 10.5626 8.1888 9.75434C8.1888 9.23824 8.2432 8.73494 8.3466 8.24994Z" fill="#F5BF00"/>
<path d="M8.75507 12.5527C8.46257 12.8279 8.04327 13.0351 7.48277 13.2013C6.72607 13.4256 5.67317 13.5861 4.23627 13.7202C2.78307 13.8558 1.76099 13.7718 1.09599 13.6505C0.91486 13.6174 0.76031 13.5816 0.630859 13.5468C1.42322 15.6881 2.90041 17.4356 4.75187 18.5829C5.98097 18.7001 7.00687 18.3157 8.25077 17.7258C9.57247 17.099 10.5266 16.3785 10.9933 15.4382C10.0189 14.6938 9.24177 13.7007 8.75507 12.5527Z" fill="#CB9200"/>
<path d="M11.3779 15.7126C10.8307 16.7612 9.77512 17.5213 8.45022 18.1495C7.47492 18.6121 6.58462 18.9742 5.60352 19.0554C7.51952 19.9995 9.75012 20.3384 12.0036 19.8784C14.3364 19.4021 16.3132 18.1474 17.7197 16.439C16.9537 16.7254 16.125 16.882 15.2602 16.882C13.8264 16.882 12.4923 16.4518 11.3779 15.7126Z" fill="#9C5E00"/>
</svg>
