<svg width="20" height="18" viewBox="0 0 20 18" fill="none" xmlns="http://www.w3.org/2000/svg">
<path d="M19.1245 9.22264C19.0229 9.71389 18.7106 10.0373 18.3413 10.3387C16.5182 11.8271 14.7008 13.3237 12.8889 14.8285C12.4017 15.2328 11.8772 15.5306 11.2443 15.5987C10.862 15.6361 10.4763 15.5956 10.1092 15.4794C9.22638 15.2139 8.34755 14.9324 7.4593 14.6888C7.16883 14.6095 6.85309 14.6264 6.53685 14.5983C6.53625 14.6335 6.53958 14.6687 6.54676 14.7032C6.76337 15.1223 6.72272 15.2855 6.33511 15.5378C5.64546 15.9871 4.95564 16.436 4.26567 16.8846C3.93406 17.0996 3.7115 17.0489 3.50381 16.7091C2.41862 14.9352 1.33391 13.1612 0.249709 11.3872C0.040534 11.0444 0.0910929 10.8243 0.42716 10.6043C1.13399 10.1413 1.83983 9.68114 2.54468 9.22366C2.87282 9.01027 3.09686 9.06349 3.30554 9.40225C3.37543 9.51534 3.44384 9.62842 3.51868 9.75021C3.69266 9.60949 3.85525 9.46468 4.03022 9.33777C5.03396 8.60601 6.15666 8.42537 7.35124 8.58963C7.54108 8.61573 7.72795 8.66179 7.9173 8.68891C7.98124 8.69812 8.09178 8.69863 8.10764 8.66588C8.17009 8.53488 8.35052 8.4397 8.24891 8.24883C8.21856 8.20058 8.19565 8.14775 8.181 8.09224C8.12102 7.76576 7.92424 7.61992 7.61246 7.58871C7.44734 7.56377 7.28487 7.52282 7.1272 7.46641C6.92 7.40142 6.80699 7.25148 6.8055 7.02939C6.80154 6.42897 6.80154 5.8289 6.8055 5.22916C6.8055 4.99889 6.92595 4.84281 7.14157 4.78243C7.38594 4.71386 7.63278 4.65603 7.87864 4.5936C7.903 4.58998 7.92716 4.58503 7.95101 4.57876C8.08583 4.53117 8.30541 3.90995 8.23156 3.78253C8.1012 3.55839 7.96637 3.33682 7.83898 3.11115C7.7116 2.88548 7.73043 2.68795 7.90788 2.5022C8.30442 2.08873 8.70228 1.67799 9.10147 1.26998C9.28487 1.0832 9.46777 1.06273 9.69082 1.1968C9.91388 1.33087 10.1231 1.46904 10.3416 1.60157C10.3853 1.62818 10.4492 1.66247 10.4903 1.64814C10.6817 1.57701 10.87 1.49462 11.0544 1.4066C11.0876 1.39074 11.1065 1.32626 11.1179 1.28021C11.1803 1.03356 11.2368 0.785376 11.2973 0.538215C11.3667 0.253698 11.501 0.132932 11.7786 0.128838C12.3354 0.123721 12.8919 0.123721 13.448 0.128838C13.7276 0.128838 13.8644 0.252164 13.9328 0.533099C13.9933 0.78026 14.0478 1.02947 14.1127 1.27509C14.1261 1.33299 14.1601 1.38358 14.2079 1.41684C14.3743 1.50073 14.5453 1.57454 14.7199 1.6379C14.777 1.6475 14.8354 1.63492 14.884 1.6026C15.0976 1.47518 15.3063 1.33803 15.519 1.20754C15.7614 1.05914 15.9398 1.07706 16.1381 1.2797C16.5303 1.6785 16.9196 2.08003 17.3059 2.48429C17.4997 2.68898 17.5215 2.88139 17.3827 3.12445C17.2608 3.33887 17.1388 3.55379 17.0055 3.76103C16.942 3.85928 16.9346 3.94167 16.9956 4.0389C17.0229 4.08125 17.0419 4.12871 17.0516 4.1786C17.1061 4.50712 17.3188 4.62789 17.6142 4.66473C17.7666 4.69065 17.917 4.72776 18.0643 4.77578C18.3017 4.84281 18.4206 4.99377 18.4221 5.244C18.4258 5.83145 18.4258 6.41874 18.4221 7.00586C18.4221 7.25609 18.3037 7.41011 18.0657 7.47664C17.8278 7.54316 17.5978 7.59383 17.3644 7.6537C17.3034 7.66956 17.2439 7.69156 17.1834 7.7105L17.1963 7.75655C17.287 7.73148 17.3768 7.70538 17.4685 7.68184C18.2189 7.49864 18.8955 7.92184 19.0883 8.693C19.0972 8.72933 19.1126 8.76413 19.125 8.79995L19.1245 9.22264ZM6.0035 13.8169C6.57976 13.65 7.18936 13.65 7.76562 13.8169C8.59737 14.0558 9.42762 14.3025 10.2514 14.5711C11.0068 14.8173 11.6631 14.6735 12.2773 14.1618C13.9219 12.7914 15.5784 11.4363 17.23 10.0746C17.5101 9.84386 17.7936 9.61666 18.0667 9.37769C18.1502 9.30927 18.2072 9.21225 18.2274 9.10421C18.2476 8.99617 18.2296 8.88425 18.1768 8.78869C18.0776 8.59884 17.8828 8.51953 17.6494 8.584C17.5721 8.60609 17.498 8.63898 17.4293 8.68174C15.9492 9.59192 14.4695 10.5023 12.99 11.4128C12.8557 11.4898 12.7136 11.5513 12.5662 11.596C12.4713 11.6243 12.3726 11.6375 12.2738 11.6349C11.3769 11.638 10.4806 11.638 9.58475 11.6349C9.27446 11.6349 9.08214 11.4302 9.10246 11.137C9.1203 10.8852 9.30816 10.7184 9.58822 10.7179C10.4601 10.7179 11.3315 10.7179 12.2034 10.7179C12.4512 10.7179 12.6634 10.5608 12.709 10.354C12.7819 10.0281 12.5603 9.76403 12.2079 9.763C11.0515 9.763 9.89554 9.76813 8.73814 9.75789C8.49261 9.75246 8.24848 9.71812 8.01049 9.65555C7.13909 9.43602 6.27067 9.34033 5.39779 9.63968C4.86881 9.82265 4.39256 10.1393 4.01238 10.5608L6.0035 13.8169ZM8.77928 2.94177C8.90667 3.15771 9.04099 3.38645 9.17582 3.61468C9.27495 3.7815 9.27495 3.94372 9.19317 4.12282C9.05983 4.4232 8.93542 4.7287 8.82438 5.03829C8.75549 5.22916 8.64545 5.35044 8.45263 5.3965C8.20182 5.45688 7.95249 5.52442 7.69375 5.59095C7.69375 5.92152 7.68929 6.23981 7.6992 6.5581C7.70574 6.58776 7.71918 6.61532 7.73835 6.63841C7.75752 6.66151 7.78186 6.67943 7.80924 6.69063C8.00999 6.75255 8.2147 6.8027 8.41991 6.84722C8.64346 6.89533 8.76689 7.034 8.83926 7.2566C8.93294 7.53889 9.04352 7.8149 9.17037 8.08303C9.2695 8.29233 9.28636 8.48012 9.1555 8.6756C9.124 8.72947 9.09553 8.78517 9.07024 8.84242H9.2923C10.2747 8.84242 11.2577 8.83986 12.2401 8.84242C12.8622 8.84242 13.3593 9.22161 13.5571 9.82647C13.5695 9.86485 13.5888 9.90066 13.6067 9.94467C14.3165 9.51124 15.0114 9.08498 15.7088 8.66179C15.8575 8.57172 16.0221 8.50827 15.9844 8.27237C15.977 8.22426 16.0231 8.17002 16.0439 8.11425C16.1624 7.82103 16.2917 7.53191 16.3943 7.23255C16.4682 7.01661 16.5961 6.89328 16.8097 6.84671C17.0149 6.80168 17.2191 6.75051 17.4204 6.69012C17.465 6.67682 17.526 6.6149 17.5269 6.57345C17.5359 6.24902 17.5319 5.92408 17.5319 5.58992C17.2776 5.52442 17.0362 5.45585 16.7884 5.40059C16.5787 5.353 16.4647 5.222 16.3918 5.01782C16.2902 4.72444 16.1744 4.43649 16.0449 4.15506C15.9497 3.95037 15.9457 3.77025 16.0672 3.57886C16.201 3.36548 16.3244 3.14441 16.4637 2.90902C16.2387 2.67976 16.0176 2.44847 15.7876 2.22741C15.7554 2.19721 15.6627 2.19875 15.6181 2.22383C15.4288 2.33026 15.2444 2.44796 15.0625 2.5677C14.889 2.68182 14.7229 2.67823 14.5375 2.5897C14.2527 2.45324 13.9629 2.32873 13.6681 2.21615C13.4827 2.14553 13.3643 2.03193 13.3211 1.83338C13.2716 1.61641 13.2146 1.40097 13.169 1.18298C13.1491 1.08729 13.114 1.04175 13.0113 1.04431C12.7457 1.05045 12.48 1.05096 12.2143 1.04431C12.1102 1.04124 12.077 1.09036 12.0572 1.18401C12.0126 1.39535 11.958 1.60413 11.9085 1.81547C11.8589 2.02681 11.7365 2.14962 11.5362 2.22484C11.2518 2.3288 10.973 2.44837 10.701 2.58305C10.5027 2.6813 10.3273 2.6854 10.1424 2.55951C9.93569 2.42186 9.72255 2.29444 9.51883 2.16651C9.27248 2.42545 9.03455 2.67362 8.77829 2.94177H8.77928ZM5.62282 14.916L2.73353 10.1888L1.19 11.1943L4.07929 15.9216L5.62282 14.916Z" fill="white" stroke="white" stroke-width="0.25"/>
<path d="M12.5994 8.63041C12.1209 8.62707 11.6541 8.47753 11.2579 8.20063C10.8616 7.92373 10.5537 7.53188 10.3729 7.07452C10.1921 6.61716 10.1466 6.11477 10.2421 5.63073C10.3375 5.14669 10.5697 4.70268 10.9093 4.3547C11.2489 4.00673 11.6808 3.77039 12.1503 3.67549C12.6199 3.58059 13.1062 3.63138 13.5478 3.82146C13.9895 4.01154 14.3667 4.33238 14.6319 4.74353C14.8971 5.15468 15.0385 5.63771 15.0381 6.13168C15.0343 6.79646 14.7755 7.4326 14.3185 7.9009C13.8614 8.3692 13.2433 8.63151 12.5994 8.63041ZM12.6306 7.70931C13.4936 7.68731 14.1711 6.96425 14.1474 6.09023C14.1417 5.88104 14.0961 5.67506 14.013 5.48417C13.9299 5.29328 13.8111 5.12125 13.6633 4.97798C13.5155 4.83472 13.3418 4.72304 13.152 4.64941C12.9623 4.57577 12.7603 4.54162 12.5577 4.54892C11.7309 4.5699 11.0598 5.30269 11.0781 6.16596C11.0965 7.02923 11.8043 7.72978 12.6306 7.70931Z" fill="white"/>
</svg>
