<svg width="17" height="18" viewBox="0 0 17 18" fill="none" xmlns="http://www.w3.org/2000/svg">
<path d="M9.96387 17.4766C10.6501 17.4715 11.187 16.9821 11.3037 16.2734C11.3495 15.993 11.3954 15.7126 11.4443 15.4326C11.5583 14.7723 12.1805 14.4001 12.8174 14.6172C13.1027 14.7147 13.3825 14.8287 13.666 14.9326C14.3555 15.1853 15.0185 14.9534 15.3887 14.3223C15.8629 13.5125 16.3335 12.7008 16.7998 11.8867C17.1547 11.2662 17.0285 10.5829 16.4844 10.1191C16.2557 9.92356 16.0152 9.73757 15.7852 9.54199C15.2618 9.09696 15.26 8.38502 15.7822 7.93945C16.0164 7.73975 16.2599 7.55126 16.4941 7.35156C17.0253 6.89917 17.1541 6.21461 16.8105 5.61035C16.3382 4.77956 15.8592 3.95277 15.374 3.12988C15.0226 2.53474 14.3554 2.30153 13.7002 2.5332C13.4159 2.63346 13.136 2.7461 12.8525 2.84863C12.1905 3.08668 11.5614 2.72226 11.4434 2.0332C11.3935 1.74189 11.3521 1.44912 11.2949 1.15918C11.1742 0.553637 10.8167 0.168831 10.2061 0.0283203C10.1847 0.0215057 10.1638 0.0122846 10.1445 0.000976562L6.85156 0C6.74408 0.0351047 6.63279 0.0617788 6.53125 0.106445C6.04582 0.317139 5.77657 0.693653 5.69238 1.20898C5.64665 1.48933 5.60121 1.76992 5.55273 2.0498C5.43872 2.70776 4.811 3.07969 4.17969 2.86035C3.89484 2.7619 3.61505 2.64838 3.33203 2.54492C2.64259 2.29365 1.97958 2.52809 1.61035 3.15918C1.13972 3.96456 0.671565 4.77203 0.207031 5.58105C-0.158729 6.21941 -0.032702 6.89703 0.532227 7.37305C0.758662 7.56364 0.990029 7.74651 1.21875 7.93848C1.74021 8.38212 1.73844 9.09772 1.21582 9.54102C0.981113 9.74031 0.737698 9.93014 0.503906 10.1299C-0.0261647 10.5827 -0.152079 11.2665 0.192383 11.8711C0.662693 12.6965 1.13852 13.5185 1.62012 14.3369C1.97927 14.9489 2.64907 15.1811 3.31934 14.9385C3.59771 14.8378 3.87253 14.7282 4.15137 14.6289C4.81282 14.3923 5.43759 14.7581 5.55762 15.4492C5.61205 15.7629 5.65909 16.0782 5.72266 16.3896C5.78138 16.6943 5.9441 16.9698 6.18359 17.168C6.42309 17.3661 6.7249 17.4752 7.03613 17.4766C8.01204 17.4836 8.98796 17.4836 9.96387 17.4766ZM6.91895 15.293C6.7016 13.8515 5.39967 12.9282 4.00391 13.25C3.64018 13.3339 3.29226 13.4898 2.94043 13.6211C2.84161 13.658 2.78861 13.6516 2.73828 13.5518C2.66189 13.3995 2.56991 13.2551 2.48438 13.1074L1.36914 11.1816L2.05957 10.6133C3.27761 9.61358 3.27783 7.86128 2.05957 6.86035C1.83094 6.67302 1.60188 6.48576 1.36914 6.29297L2.80859 3.80762C3.12199 3.92391 3.41526 4.03626 3.70898 4.1416C4.11643 4.29652 4.56006 4.33221 4.9873 4.24512C6.03344 4.0293 6.75655 3.25458 6.91895 2.18164C6.96012 1.90809 7.00992 1.63821 7.05566 1.36328H9.93457C9.98032 1.65241 10.0297 1.92188 10.0713 2.19141C10.2911 3.62939 11.6021 4.55119 12.9932 4.22266C13.3568 4.13694 13.704 3.98113 14.0566 3.85254C14.1352 3.82386 14.1861 3.81082 14.2373 3.89746C14.6934 4.69592 15.1537 5.48735 15.623 6.29492L15.6211 6.29395C15.3947 6.48037 15.1797 6.65849 14.9639 6.83398C13.6984 7.86737 13.698 9.60716 14.9639 10.6396C15.1834 10.8184 15.4007 10.9997 15.6221 11.1816C15.155 11.9878 14.6958 12.7775 14.2393 13.5723C14.1972 13.6461 14.158 13.6608 14.0762 13.6289C13.7788 13.5135 13.4811 13.3964 13.1777 13.2988C12.8551 13.1963 12.5141 13.1634 12.1777 13.2021C11.8411 13.241 11.5164 13.351 11.2256 13.5244C10.9349 13.6978 10.6847 13.9308 10.4912 14.208C10.2977 14.4853 10.1654 14.8007 10.1035 15.1328C10.0445 15.4555 9.99081 15.779 9.93457 16.1035H7.05566C7.00993 15.83 6.96147 15.5619 6.91895 15.293Z" fill="#FFD705"/>
<path d="M9.96387 17.4766C10.6501 17.4715 11.187 16.9821 11.3037 16.2734C11.3495 15.993 11.3954 15.7126 11.4443 15.4326C11.5583 14.7723 12.1805 14.4001 12.8174 14.6172C13.1027 14.7147 13.3825 14.8287 13.666 14.9326C14.3555 15.1853 15.0185 14.9534 15.3887 14.3223C15.8629 13.5125 16.3335 12.7008 16.7998 11.8867C17.1547 11.2662 17.0285 10.5829 16.4844 10.1191C16.2557 9.92356 16.0152 9.73757 15.7852 9.54199C15.2618 9.09696 15.26 8.38502 15.7822 7.93945C16.0164 7.73975 16.2599 7.55126 16.4941 7.35156C17.0253 6.89917 17.1541 6.21461 16.8105 5.61035C16.3382 4.77956 15.8592 3.95277 15.374 3.12988C15.0226 2.53474 14.3554 2.30153 13.7002 2.5332C13.4159 2.63346 13.136 2.7461 12.8525 2.84863C12.1905 3.08668 11.5614 2.72226 11.4434 2.0332C11.3935 1.74189 11.3521 1.44912 11.2949 1.15918C11.1742 0.553637 10.8167 0.168831 10.2061 0.0283203C10.1847 0.0215057 10.1638 0.0122846 10.1445 0.000976562L6.85156 0C6.74408 0.0351047 6.63279 0.0617788 6.53125 0.106445C6.04582 0.317139 5.77657 0.693653 5.69238 1.20898C5.64665 1.48933 5.60121 1.76992 5.55273 2.0498C5.43872 2.70776 4.811 3.07969 4.17969 2.86035C3.89484 2.7619 3.61505 2.64838 3.33203 2.54492C2.64259 2.29365 1.97958 2.52809 1.61035 3.15918C1.13972 3.96456 0.671565 4.77203 0.207031 5.58105C-0.158729 6.21941 -0.032702 6.89703 0.532227 7.37305C0.758662 7.56364 0.990029 7.74651 1.21875 7.93848C1.74021 8.38212 1.73844 9.09772 1.21582 9.54102C0.981113 9.74031 0.737698 9.93014 0.503906 10.1299C-0.0261647 10.5827 -0.152079 11.2665 0.192383 11.8711C0.662693 12.6965 1.13852 13.5185 1.62012 14.3369C1.97927 14.9489 2.64907 15.1811 3.31934 14.9385C3.59771 14.8378 3.87253 14.7282 4.15137 14.6289C4.81282 14.3923 5.43759 14.7581 5.55762 15.4492C5.61205 15.7629 5.65909 16.0782 5.72266 16.3896C5.78138 16.6943 5.9441 16.9698 6.18359 17.168C6.42309 17.3661 6.7249 17.4752 7.03613 17.4766C8.01204 17.4836 8.98796 17.4836 9.96387 17.4766ZM6.91895 15.293C6.7016 13.8515 5.39967 12.9282 4.00391 13.25C3.64018 13.3339 3.29226 13.4898 2.94043 13.6211C2.84161 13.658 2.78861 13.6516 2.73828 13.5518C2.66189 13.3995 2.56991 13.2551 2.48438 13.1074L1.36914 11.1816L2.05957 10.6133C3.27761 9.61358 3.27783 7.86128 2.05957 6.86035C1.83094 6.67302 1.60188 6.48576 1.36914 6.29297L2.80859 3.80762C3.12199 3.92391 3.41526 4.03626 3.70898 4.1416C4.11643 4.29652 4.56006 4.33221 4.9873 4.24512C6.03344 4.0293 6.75655 3.25458 6.91895 2.18164C6.96012 1.90809 7.00992 1.63821 7.05566 1.36328H9.93457C9.98032 1.65241 10.0297 1.92188 10.0713 2.19141C10.2911 3.62939 11.6021 4.55119 12.9932 4.22266C13.3568 4.13694 13.704 3.98113 14.0566 3.85254C14.1352 3.82386 14.1861 3.81082 14.2373 3.89746C14.6934 4.69592 15.1537 5.48735 15.623 6.29492L15.6211 6.29395C15.3947 6.48037 15.1797 6.65849 14.9639 6.83398C13.6984 7.86737 13.698 9.60716 14.9639 10.6396C15.1834 10.8184 15.4007 10.9997 15.6221 11.1816C15.155 11.9878 14.6958 12.7775 14.2393 13.5723C14.1972 13.6461 14.158 13.6608 14.0762 13.6289C13.7788 13.5135 13.4811 13.3964 13.1777 13.2988C12.8551 13.1963 12.5141 13.1634 12.1777 13.2021C11.8411 13.241 11.5164 13.351 11.2256 13.5244C10.9349 13.6978 10.6847 13.9308 10.4912 14.208C10.2977 14.4853 10.1654 14.8007 10.1035 15.1328C10.0445 15.4555 9.99081 15.779 9.93457 16.1035H7.05566C7.00993 15.83 6.96147 15.5619 6.91895 15.293Z" stroke="white"/>
<path d="M8.39648 12.0596C10.205 12.1403 11.7502 10.6846 11.8242 8.82715C11.8953 7.02601 10.4442 5.49735 8.58496 5.4209C6.7837 5.3456 5.24224 6.79679 5.16602 8.64551C5.09192 10.4451 6.53673 11.9746 8.39648 12.0596ZM8.5166 10.7939C7.39904 10.8121 6.45775 9.89732 6.43359 8.77051V8.76953C6.41041 7.64691 7.33698 6.70342 8.47266 6.68457C9.59093 6.66633 10.5294 7.57979 10.5557 8.70898C10.5808 9.82819 9.65332 10.7753 8.5166 10.7939Z" fill="#FFD705" stroke="white" stroke-width="0.1"/>
</svg>
