<svg width="17" height="19" viewBox="0 0 17 19" fill="none" xmlns="http://www.w3.org/2000/svg">
<g clip-path="url(#clip0_2_2290)">
<path d="M15.1094 1.74609C15.9317 1.79616 16.5878 2.29077 16.8447 3.05371L16.8906 3.20996C16.9293 3.3681 16.9483 3.5305 16.9473 3.69336C16.9505 7.59008 16.9505 11.488 16.9473 15.3848C16.9471 16.3682 16.3396 17.0985 15.4131 17.2969L15.2236 17.3301C14.3628 17.4409 13.4595 16.8189 13.2246 15.9707V15.9688L13.1768 15.8398C13.1218 15.7133 13.0455 15.5964 12.9512 15.4951C12.3809 14.8739 11.7393 14.3405 10.96 13.9863C9.97112 13.537 8.88551 13.3457 7.80371 13.4307L7.75781 13.4346V15.2773C7.75345 15.875 7.76815 16.4553 7.7168 17.0371C7.65034 17.7933 6.98655 18.4711 6.2373 18.6094C5.42344 18.7592 4.61084 18.3911 4.22559 17.7158C4.04105 17.3871 3.94721 17.0142 3.95312 16.6367L3.95605 13.54C3.95605 13.4701 3.94758 13.4087 3.91602 13.3564C3.88409 13.3037 3.83304 13.267 3.76367 13.2363H3.7627C3.39641 13.0789 3.09569 12.802 2.90625 12.4531L2.83203 12.2998C2.80258 12.229 2.76519 12.1776 2.71191 12.1455C2.65958 12.114 2.59851 12.1055 2.53027 12.1055H2.53125C1.90564 12.0873 1.30832 11.8388 0.852539 11.4072C0.396682 10.9753 0.114052 10.3893 0.0585938 9.76172C-0.0557699 8.49291 0.800694 7.32095 2.05957 7.03906C2.15804 7.01708 2.26692 7.02027 2.38281 7.0166C2.49402 7.01306 2.61311 7.00314 2.70801 6.94336C2.80317 6.88333 2.86225 6.77962 2.91211 6.68066C2.93828 6.62873 2.96252 6.57807 2.9873 6.53027L3.06738 6.39941C3.46069 5.90154 3.98416 5.66797 4.61621 5.66797H8.30176C10.031 5.66787 11.5166 5.07299 12.7324 3.82129C12.9654 3.58146 13.1663 3.33977 13.2861 2.99121C13.4156 2.61334 13.6635 2.28789 13.9922 2.06348C14.2797 1.86719 14.6158 1.75719 14.9609 1.74512L15.1094 1.74609ZM5.15723 13.4824C5.15723 14.592 5.14973 15.6882 5.16113 16.7832C5.16527 17.1603 5.49337 17.4408 5.85449 17.4414C6.21563 17.4419 6.54371 17.1612 6.54785 16.7842C6.56143 15.6886 6.55371 14.593 6.55371 13.4824V13.4326H5.15723V13.4824ZM15.0449 2.95117C14.8255 2.95129 14.6472 3.03266 14.5254 3.1875C14.4048 3.3408 14.3438 3.56043 14.3438 3.8291V15.2539C14.3412 15.3357 14.3433 15.4175 14.3496 15.499V15.5C14.3662 15.6735 14.4468 15.8348 14.5752 15.9521C14.7035 16.0693 14.8705 16.1347 15.0439 16.1348C15.2175 16.1348 15.3853 16.0695 15.5137 15.9521C15.642 15.8349 15.7216 15.6735 15.7383 15.5V15.499C15.7445 15.4181 15.7466 15.337 15.7441 15.2559L15.7471 9.54102V3.82812C15.747 3.5601 15.686 3.34072 15.5654 3.1875C15.4435 3.03257 15.2646 2.95117 15.0449 2.95117ZM13.043 5.18555C11.8866 6.15611 10.5797 6.68919 9.11719 6.84277L9.07227 6.84766V6.87109L7.58691 6.875H4.66309C4.40161 6.875 4.19598 6.93969 4.05664 7.0791C3.91747 7.2185 3.85254 7.42424 3.85254 7.68652V11.3896C3.85254 11.6573 3.91649 11.8645 4.05762 12.0039C4.19867 12.1432 4.40844 12.2063 4.67773 12.208H7.58008C7.62033 12.208 8.30394 12.2057 8.8291 12.2031C8.91562 12.2027 8.99787 12.2016 9.07227 12.2012V12.2373L9.11816 12.2412C10.5631 12.3757 11.9326 12.9518 13.043 13.8916L13.0742 13.8545H13.125V5.11621L13.043 5.18555ZM2.59277 8.19824C2.41395 8.19825 2.236 8.23372 2.07129 8.30371C1.90676 8.37368 1.75831 8.4767 1.63379 8.60547C1.50916 8.73438 1.41063 8.88719 1.3457 9.05469C1.28093 9.22194 1.24997 9.40066 1.25488 9.58008V9.58105C1.28138 10.3126 1.89877 10.9197 2.5957 10.8779L2.64258 10.875V8.19824H2.59277Z" fill="white" stroke="white" stroke-width="0.1"/>
</g>
<defs>
<clipPath id="clip0_2_2290">
<rect width="17" height="18.6919" fill="white"/>
</clipPath>
</defs>
</svg>
